<svg xmlns="http://www.w3.org/2000/svg" viewBox="0 0 80.87 77.88"><defs><style>.cls-1{fill:#fff;}</style></defs><title>arnter-partner-obaling</title><g id="Capa_2" data-name="Capa 2"><g id="Capa_1-2" data-name="Capa 1"><rect width="80.87" height="77.88"/><path class="cls-1" d="M50.23,31.55h.39V30H52.2v-.38H50.62V28h-.39v1.32L45.91,25h1.28V24.6H45.87l4.83-4.82.85.85.27-.27-2-2-.27.28.85.85L45.6,24.33V23h-.38v1.27L40.9,20h1.3v-.38H40.63V18h-.39v1.59H38.65V20H40l-4.34,4.34V23h-.38v1.29l-4.81-4.8.86-.85L31,18.38l-2,2,.27.27.85-.85L35,24.6H33.66V25H35l-4.31,4.32V28h-.39v1.59H28.67V30h1.58v1.59h.39V30.23L35,34.57H33.66V35H35l-4.81,4.8-.85-.85-.27.27,2,2,.28-.28L30.44,40l4.81-4.8v1.31h.38V35.23L40,39.57H38.65V40h1.59v1.59h.39V40H42.2v-.38H40.9l4.32-4.32v1.29h.38V35.21L50.42,40l-.85.85.27.28,2-2-.27-.27-.85.85L45.89,35h1.3v-.39h-1.3l4.34-4.34Zm-15-6.31v1.33h.38V25.24L40,29.58H30.91Zm0,7.75V34.3L30.91,30H40L35.63,34.3V33Zm5,6.31L35.9,35h1.32v-.39H35.9l4.34-4.34Zm0-10L35.92,25h1.3V24.6H35.88l4.36-4.36Zm.39-9.07L45,24.6H43.63V25h1.31l-4.31,4.32ZM45,35,40.63,39.3V30.23L45,34.57H43.63V35Zm.63-.64V33h-.38v1.29L40.9,30H50Zm-4.7-4.74,4.32-4.32v1.31h.38V25.22L50,29.58Z"/><path class="cls-1" d="M29.05,59.58h.4V57h-.4v-.25h1.4a1.24,1.24,0,0,1,.52.09.85.85,0,0,1,.49.83.87.87,0,0,1-.56.87,1.29,1.29,0,0,1-.45.06h-.69v1h.4v.25H29.05Zm1.37-1.23a1,1,0,0,0,.37-.06.6.6,0,0,0,.36-.61.59.59,0,0,0-.32-.58,1,1,0,0,0-.41-.08h-.66v1.33Z"/><path class="cls-1" d="M34.07,59.58h.32l1-2.82h.34l1,2.82h.32v.25h-1v-.25h.36l-.29-.79H35l-.29.79h.35v.25h-1Zm2-1-.46-1.26,0-.14v-.06h0a.11.11,0,0,1,0,.06.89.89,0,0,1,0,.14l-.47,1.26Z"/><path class="cls-1" d="M40,59.58h.41V57H40v-.25h1.32a1.54,1.54,0,0,1,.54.07.75.75,0,0,1,.5.77.82.82,0,0,1-.68.87h0l0,0a.17.17,0,0,1,.07.09l.52.87c0,.09.1.11.21.11h.09v.25h-.16c-.27,0-.32,0-.43-.23l-.51-.88c-.08-.15-.15-.19-.35-.19h-.44v1h.4v.25H40Zm1.43-1.31a.6.6,0,0,0,.62-.65.52.52,0,0,0-.34-.54,1.12,1.12,0,0,0-.4-.06h-.6v1.25Z"/><path class="cls-1" d="M45.63,59.58H46V57h-.4v-.25h1.11V57h-.4v2.57h.4v.25H45.63Z"/><path class="cls-1" d="M50.15,59v.23c0,.26.32.4.67.4s.69-.19.69-.55-.38-.54-.77-.69-.82-.32-.82-.85.43-.8.93-.8.89.16.89.48v.32h-.3v-.22c0-.2-.31-.3-.59-.3s-.62.17-.62.49.33.5.7.64.89.34.89.9a.89.89,0,0,1-1,.86c-.44,0-1-.2-1-.61V59Z"/><path class="cls-1" d="M21.27,47.42a3,3,0,1,0,3,3A2.92,2.92,0,0,0,21.27,47.42Zm0,5.19a2.22,2.22,0,1,1,2.25-2.22A2.19,2.19,0,0,1,21.27,52.61Z"/><path class="cls-1" d="M30,50.24a1.45,1.45,0,0,0,.56-1.16c0-1-.7-1.56-1.86-1.56h-2v5.74h2.21c1.19,0,1.93-.64,1.93-1.66A1.53,1.53,0,0,0,30,50.24ZM29,52.53H27.46V50.64h1.45c.71,0,1.16.37,1.16,1A1,1,0,0,1,29,52.53Zm-.15-2.6H27.46V48.25h1.31c.67,0,1.06.3,1.06.83S29.46,49.93,28.84,49.93Z"/><polygon class="cls-1" points="41.08 47.52 40.33 47.52 40.33 53.26 43.76 53.26 43.76 52.53 41.08 52.53 41.08 47.52"/><rect class="cls-1" x="45.95" y="47.52" width="0.75" height="5.74"/><polygon class="cls-1" points="53.55 51.81 50.11 47.55 50.09 47.52 49.55 47.52 49.55 53.26 50.3 53.26 50.3 48.97 53.73 53.23 53.76 53.26 54.3 53.26 54.3 47.52 53.55 47.52 53.55 51.81"/><path class="cls-1" d="M37.55,52.35h0c-.12-.25-1.9-4.49-2-4.83h-.63L32.5,53.25h.83L33.82,52h2.74l0,.05c.36,1.11.81,1.26,1.15,1.26a.71.71,0,0,0,.5-.17l-.15-.59A.44.44,0,0,1,37.55,52.35Zm-3.49-.89,1.13-2.8,1.14,2.8Z"/><path class="cls-1" d="M59.78,50.15v.61h2l0,.09a2.15,2.15,0,1,1-2.1-2.64,2.13,2.13,0,0,1,1.72.88l.6-.51a2.94,2.94,0,1,0-2.32,4.73,3,3,0,0,0,2.92-2.49h0a3.31,3.31,0,0,0,0-.42,1.93,1.93,0,0,0,0-.24Z"/></g></g></svg>