<svg xmlns="http://www.w3.org/2000/svg" viewBox="0 0 93.86 70.08"><title>arnter-partner-pluaroja</title><g id="Capa_2" data-name="Capa 2"><g id="Capa_1-2" data-name="Capa 1"><path d="M21.45,65.9H21V65h1.69v3.58c0,.34.06.46.33.46h.14v1L23,70h-.26c-.63,0-1.32-.15-1.32-1.35Z"/><path d="M26,69.13h.45V67.29H26v-.87h1.68v2.71h.45V70H26Zm.47-4.1h1.17V66H26.48Z"/><path d="M31.18,65.9h-.49V65h1.69v1.39a1.41,1.41,0,0,1,0,.22v.08h0a1.12,1.12,0,0,1,.24-.19,1.29,1.29,0,0,1,.72-.19A1.66,1.66,0,0,1,35,68.21a1.7,1.7,0,0,1-1.67,1.87,1.3,1.3,0,0,1-.76-.22,1.11,1.11,0,0,1-.22-.21h0V70H31.18Zm1.87,3.19c.38,0,.7-.3.7-.85s-.29-.89-.7-.89-.71.27-.71.89A.76.76,0,0,0,33.05,69.09Z"/><path d="M37.79,69.13h.49V67.44c0-.1-.05-.15-.16-.15h-.33v-.87h1.13c.33,0,.51.13.51.46v.19a.42.42,0,0,1,0,.13v0h0a1.23,1.23,0,0,1,1.14-.89h.14v1.18h-.25c-.66,0-1,.42-1,1.08v.52H40V70H37.79Z"/><path d="M45.24,66.34a1.59,1.59,0,0,1,1.66,1.73,1.86,1.86,0,0,1,0,.22v.14H44.6a.79.79,0,0,0,.84.66,1.8,1.8,0,0,0,.7-.17,3.07,3.07,0,0,0,.31-.17l.43.83a2,2,0,0,1-.41.25,2.56,2.56,0,0,1-1.13.25,1.85,1.85,0,0,1-2-1.87A1.78,1.78,0,0,1,45.24,66.34Zm.42,1.43a.49.49,0,0,0-.45-.53.58.58,0,0,0-.58.53Z"/><path d="M49.75,69.13h.49V67.44a.13.13,0,0,0-.15-.15h-.34v-.87h1.13c.33,0,.51.13.51.46v.19a.42.42,0,0,1,0,.13v0h0a1.24,1.24,0,0,1,1.14-.89h.14v1.18h-.24c-.67,0-1,.42-1,1.08v.52h.49V70H49.75Z"/><path d="M55.45,69.13h.46V67.29h-.49v-.87h1.69v2.71h.45V70H55.45ZM56.68,65h1.23l-1,1h-1Z"/><path d="M62.2,67.78h.21v-.11c0-.3-.23-.39-.5-.39a1.79,1.79,0,0,0-.68.16,1.92,1.92,0,0,0-.31.18l-.42-.82a2.82,2.82,0,0,1,.42-.23,2.73,2.73,0,0,1,1.1-.23c1,0,1.6.51,1.6,1.46V69c0,.1,0,.15.15.15H64V70H63c-.36,0-.48-.2-.48-.38v0s0-.06,0-.07v0h0a1.13,1.13,0,0,1-.24.29,1.2,1.2,0,0,1-.82.3A1.08,1.08,0,0,1,60.29,69C60.29,67.93,61.64,67.78,62.2,67.78Zm-.38,1.43a.72.72,0,0,0,.61-.68v-.08h-.11c-.4,0-.82.13-.82.45A.3.3,0,0,0,61.82,69.21Z"/><path d="M66.74,68.74h1v.18c0,.17.17.25.52.25s.44-.07.44-.21-.24-.25-.7-.4-1.14-.43-1.14-1.14.84-1.08,1.53-1.08,1.37.19,1.37.78v.48h-1v-.16c0-.11-.1-.19-.36-.19s-.34,0-.34.18.29.3.63.39c.53.14,1.21.37,1.21,1.11s-.78,1.15-1.63,1.15c-.64,0-1.53-.27-1.53-.87Z"/><path d="M.34,51.94H4.71a3.81,3.81,0,0,1,.06,7.62H3.07v2.75H.34Zm2.73,5.27H4.75a1.49,1.49,0,1,0,0-3H3.07Z"/><path d="M10,51.94h2.73v7.63h3.73v2.74H10Z"/><path d="M20.86,58.18a1.36,1.36,0,0,0,2.72,0V51.94h2.73v6.28a4.09,4.09,0,0,1-8.18,0V51.94h2.73Z"/><path d="M33.85,55.78l4.22-3.84H39.3V62.31H36.56V57l-2.71,2.47L31.13,57v5.31H28.39V51.94h1.23Z"/><path d="M40.7,62.31l4.84-10.37h1.23l4.88,10.37H48.93L48.29,61H44l-.62,1.35Zm4.41-3.65h2.11l-1-2.28Z"/><path d="M59.05,62.31l-1.61-2.75H55.76v2.75H53V51.94H57.4A3.81,3.81,0,0,1,60,58.55l2.2,3.76Zm-3.29-5.1h1.68a1.49,1.49,0,1,0,0-3H55.76Z"/><path d="M68.22,51.94a5.19,5.19,0,1,1-5.17,5.2A5.2,5.2,0,0,1,68.22,51.94Zm0,2.71a2.48,2.48,0,1,0,2.47,2.48A2.47,2.47,0,0,0,68.22,54.65Z"/><path d="M81.51,58.77c0,2.39-2,3.54-4.05,3.54a4.94,4.94,0,0,1-2.95-1.08c.33-.33,1-1,2-2a1.39,1.39,0,0,0,1.06.34,1.14,1.14,0,0,0,1.23-1.2V51.94h2.73Z"/><path d="M82.91,62.31l4.84-10.37H89l4.88,10.37H91.13L90.5,61H86.25l-.62,1.35Zm4.41-3.65h2.11l-1.05-2.28Z"/><path d="M92.44.18l-.58.27c-4.55,2.38-9.07,4.8-13.64,7.15a29.5,29.5,0,0,1-5,2.13,3.75,3.75,0,0,0-2.62,2.44c-.78,2-1.49,4-2.24,6a4.2,4.2,0,0,1-.3.6.49.49,0,0,1-.44.13h0a.21.21,0,0,1-.13-.27c.84-2.58,1.68-5.16,2.55-7.81a.22.22,0,0,0-.25-.29c-2.36.5-4.6,1-7,1.48s-5.07.94-7.62,1.32c-.27,0-1.62.11-3.23.25-.52,1.68-2.34,8.57-4,9.94-.19.16-.51.08-.42-.21.51-1.57,2.22-6.93,2.74-9,0-.06,0-.12.05-.18a.33.33,0,0,0,0-.17.46.46,0,0,0-.33-.18,8,8,0,0,0-.95.14h0a3.42,3.42,0,0,0-1.09.4C42.26,16.56,37.08,18.64,31.47,21a5.73,5.73,0,0,0-1.86,1.72c-1.69,2.11-5.65,7.37-6.06,7.72-.15.12-.64-.06-.5-.27,2.39-3.6,5.08-7.41,5.76-8.36a.84.84,0,0,0,.17-.45c0-.25-.18-.61-.93-.26-.27.13-.51.24-.79.39a88.06,88.06,0,0,0-9.39,6.29h0l-.66.53A89.29,89.29,0,0,0,10,35a2.35,2.35,0,0,1-.49.39H9.29l-9-.46a.2.2,0,0,0-.22.17l-.07.3a.21.21,0,0,0,.13.25A8.84,8.84,0,0,0,2,36.27,93.22,93.22,0,0,0,13.6,37.6a106.15,106.15,0,0,0,30.87-3.37C53.41,31.81,60.24,29,67.84,23.81l1.56-1.09c2.45-1.75,2.89-.89.34,1l-1,.71A74.6,74.6,0,0,1,45.86,35.06a108.16,108.16,0,0,1-28.52,4H16.09a.22.22,0,0,0-.22.26,4.47,4.47,0,0,0,4.36,3.87.22.22,0,0,0,.17-.36l-.76-.95a.22.22,0,0,1,.22-.35l1.67.37c3,.71,6.07,1.48,9.13,2.1a8.57,8.57,0,0,0,5.22-.77,50.29,50.29,0,0,1,8.56-2.33c2-.44,4-.64,6-1s2-.7.86-2.12L51,37.41a.22.22,0,0,1,.16-.36,1.22,1.22,0,0,1,.49,0c2.4,1,4.49.16,6.61-.93C73.58,28.24,85.63,17.07,93.14,1.41c.09-.2.19-.39.26-.59C93.62.2,93.4-.27,92.44.18Z"/></g></g></svg>