<svg xmlns="http://www.w3.org/2000/svg" viewBox="0 0 101.18 67.04"><title>arnter-partner-lord</title><g id="Capa_2" data-name="Capa 2"><g id="Capa_1-2" data-name="Capa 1"><path d="M24.54,65.08c-.08-.51-.17-1.13-.22-1.6h0c-.08.45-.19.93-.32,1.46l-.45,1.87-.35,0-.77-1.71c-.23-.51-.43-1-.58-1.4h0c0,.46.08,1.09.11,1.65s0,1,.08,1.61l-.44,0c-.07-1.49-.1-2.24-.16-3.74l.6-.07c.32.7.49,1,.81,1.74.2.44.36.84.49,1.21h0c.05-.38.14-.81.25-1.29L24.06,63l.6-.06c.23,1.49.35,2.22.58,3.71l-.45,0Z"/><path d="M28.75,64.59l-1.41.12c.05.54.07.81.12,1.34L29,65.92l0,.41-2,.17c-.14-1.49-.2-2.24-.34-3.73l2-.17,0,.41-1.5.12.1,1.18,1.41-.12Z"/><path d="M30.46,65.93c.7-1.27,1.06-1.91,1.79-3.18h0l-1.84.13,0-.4,2.46-.18,0,.3c-.73,1.26-1.08,1.89-1.79,3.15v0l2-.14,0,.4-2.63.19Z"/><path d="M37.15,65.66a2.35,2.35,0,0,1-.94.23,1.73,1.73,0,0,1-1.9-1.79A1.83,1.83,0,0,1,36.1,62a2,2,0,0,1,.87.12c0,.16,0,.24-.09.4a1.79,1.79,0,0,0-.75-.12,1.39,1.39,0,0,0-1.33,1.63,1.35,1.35,0,0,0,1.48,1.42,1.79,1.79,0,0,0,.75-.2Z"/><path d="M39.36,64.5c-.13.47-.19.71-.32,1.19l-.48,0c.42-1.52.63-2.27,1.07-3.79l.56,0c.56,1.47.84,2.21,1.38,3.69l-.49,0-.43-1.17Zm1.18-.43L40.14,63c-.09-.24-.16-.46-.22-.67h0c0,.22-.1.45-.16.68-.12.44-.18.66-.31,1.1Z"/><path d="M43.07,61.8l.47,0c0,1.34.06,2,.09,3.34l1.54,0v.4l-2,.06C43.13,64,43.11,63.29,43.07,61.8Z"/><path d="M52,63.78c0-.53-.06-1.15-.05-1.62h0c-.13.44-.28.9-.46,1.42-.26.73-.39,1.09-.64,1.82h-.35l-.6-1.78c-.17-.53-.32-1-.42-1.46h0c0,.47,0,1.1-.06,1.66s-.06,1-.09,1.6h-.44c.08-1.5.13-2.25.22-3.74h.6c.25.72.38,1.08.63,1.81.15.46.28.87.37,1.26h0a11.37,11.37,0,0,1,.38-1.26c.25-.73.38-1.09.65-1.81h.6c.08,1.5.12,2.24.21,3.74h-.46C52.08,64.76,52.06,64.43,52,63.78Z"/><path d="M56.26,63.71l-1.41,0c0,.54,0,.81,0,1.35l1.56,0v.41l-2,0c0-1.5,0-2.25,0-3.74l2,0v.4l-1.5,0c0,.47,0,.71,0,1.18l1.42,0Z"/><path d="M60,65.56c-.18-.33-.26-.5-.44-.84s-.29-.53-.39-.75h0c-.11.21-.22.41-.42.73l-.45.81h-.54c.46-.75.69-1.12,1.16-1.86l-1-1.88.54,0c.19.35.28.53.46.88s.23.44.32.65h0c.11-.22.21-.39.35-.62l.53-.86h.54l-1.17,1.79,1.07,1.95Z"/><path d="M62.82,61.93c-.07,1.49-.1,2.24-.16,3.73l-.47,0,.15-3.73Z"/><path d="M67.06,65.77a2.47,2.47,0,0,1-1,.12,1.73,1.73,0,0,1-1.68-2,1.83,1.83,0,0,1,2-1.86,2.06,2.06,0,0,1,.86.22c-.06.15-.09.23-.14.39a1.67,1.67,0,0,0-.73-.2,1.37,1.37,0,0,0-1.5,1.46,1.35,1.35,0,0,0,1.31,1.58,2,2,0,0,0,.77-.11C67,65.53,67,65.61,67.06,65.77Z"/><path d="M69.39,64.86,68.94,66l-.48,0c.59-1.46.88-2.19,1.48-3.65l.57,0c.39,1.53.58,2.3,1,3.82l-.49,0-.3-1.2Zm1.22-.3-.28-1.1c-.07-.25-.1-.47-.14-.69h0c-.07.22-.15.44-.23.66-.18.42-.26.63-.43,1.06Z"/><path d="M73.07,66.31c.12-1.49.19-2.24.31-3.73l.51.05c.41.79.61,1.19,1,2a9.25,9.25,0,0,1,.54,1.27h0c0-.5,0-1,.08-1.53s.08-.94.14-1.56l.44,0c-.13,1.49-.2,2.23-.34,3.72l-.47,0c-.39-.8-.58-1.19-1-2-.21-.44-.42-.88-.57-1.3h0c0,.48,0,.92-.09,1.54s-.08,1-.13,1.6Z"/><path d="M80.93,65.15c-.14,1.28-1,1.87-1.88,1.78a1.71,1.71,0,0,1-1.43-2.06,1.75,1.75,0,0,1,1.88-1.78A1.68,1.68,0,0,1,80.93,65.15Zm-2.81-.24c-.08.8.27,1.55,1,1.63s1.22-.58,1.32-1.42-.22-1.56-1-1.64S78.2,64.1,78.12,64.91Z"/><path d="M38.19,26.89c0,.07,0,.15,0,.26s0,.3-.09.58a4.15,4.15,0,0,1-.17.73,1.44,1.44,0,0,1-.32.58.64.64,0,0,1-.5.26H29.36v-.6a1.24,1.24,0,0,0,.94-.26,1.26,1.26,0,0,0,.24-.87V21.73a1.29,1.29,0,0,0-.24-.87,1.29,1.29,0,0,0-.94-.25V20h4.87v.62a1.48,1.48,0,0,0-1,.26,1.13,1.13,0,0,0-.28.86v5.62a1.19,1.19,0,0,0,1.34,1.35h.41a2.59,2.59,0,0,0,1-.18,2.74,2.74,0,0,0,.77-.45,5.65,5.65,0,0,0,.55-.54,2.34,2.34,0,0,0,.36-.46l.12-.18Z"/><path d="M47.71,21.2a4.63,4.63,0,0,1,0,6.87,5.68,5.68,0,0,1-7.48,0,4.63,4.63,0,0,1,0-6.88,5.65,5.65,0,0,1,7.47,0Zm-1.82,6.63a4.69,4.69,0,0,0,.64-2.64,6.94,6.94,0,0,0-.74-3.31,2.24,2.24,0,0,0-2-1.38,2,2,0,0,0-1.74,1,4.73,4.73,0,0,0-.65,2.64,6.73,6.73,0,0,0,.76,3.34,2.29,2.29,0,0,0,2,1.36A2,2,0,0,0,45.89,27.83Z"/><path d="M60.42,28A1.24,1.24,0,0,1,60,29a1.84,1.84,0,0,1-1.28.4,2.52,2.52,0,0,1-1.19-.28,3,3,0,0,1-.9-.69,4.86,4.86,0,0,1-.68-1.06,8.37,8.37,0,0,1-.49-1.19c-.12-.36-.25-.78-.39-1.27a9.79,9.79,0,0,1-1.36-.11v2.75a1.26,1.26,0,0,0,.24.87,1.32,1.32,0,0,0,.95.26v.61H50.1v-.61a1.3,1.3,0,0,0,.95-.26,1.26,1.26,0,0,0,.24-.87V21.73a1.29,1.29,0,0,0-.24-.87,1.3,1.3,0,0,0-.95-.25V20h5.14c2.74,0,4.1.76,4.1,2.26a2.08,2.08,0,0,1-.51,1.4,3.17,3.17,0,0,1-1.16.87,4.69,4.69,0,0,1-1.29.32,4.28,4.28,0,0,0,1.15,1.71,2.52,2.52,0,0,0,1.73.75,1.53,1.53,0,0,0,.45-.06,1,1,0,0,0,.29-.12l.07-.05A1.37,1.37,0,0,1,60.42,28Zm-5.84-3.92a2.23,2.23,0,0,0,1.66-.51,1.66,1.66,0,0,0,.49-1.22,1.56,1.56,0,0,0-.55-1.25,2.49,2.49,0,0,0-1.64-.47h-.86v3.39A5.62,5.62,0,0,0,54.58,24.12Z"/><path d="M66.49,20a7.41,7.41,0,0,1,2.47.38,4.09,4.09,0,0,1,1.67,1,4.38,4.38,0,0,1,.9,1.42,4.8,4.8,0,0,1,.29,1.67,5.17,5.17,0,0,1-.31,1.83,4.57,4.57,0,0,1-.91,1.53A4.07,4.07,0,0,1,69,28.91a6.45,6.45,0,0,1-2.32.39H61v-.61a1.4,1.4,0,0,0,1-.26,1.21,1.21,0,0,0,.26-.87V21.73a1.24,1.24,0,0,0-.26-.87,1.41,1.41,0,0,0-1-.25V20Zm1.91,7.57a4.46,4.46,0,0,0,.81-2.78A5.64,5.64,0,0,0,69,23.2a4.2,4.2,0,0,0-.61-1.3,2.8,2.8,0,0,0-1.1-.9,3.72,3.72,0,0,0-1.62-.33h-1v6.86c0,.73.35,1.09,1,1.09H66A2.8,2.8,0,0,0,68.4,27.56Z"/><path d="M19.22,47.68A3.8,3.8,0,0,1,18.45,50a4.74,4.74,0,0,1-2,1.54,13,13,0,0,1-2.64.78,15.52,15.52,0,0,1-2.83.26H0V51.4a2.55,2.55,0,0,0,1.87-.51,2.49,2.49,0,0,0,.47-1.72V37.63a2.48,2.48,0,0,0-.47-1.72A2.55,2.55,0,0,0,0,35.39V34.18H9.92c.56,0,1.09,0,1.61.06s1.13.1,1.81.2a8.78,8.78,0,0,1,1.85.46,8.91,8.91,0,0,1,1.55.76,3.23,3.23,0,0,1,1.13,1.22,3.51,3.51,0,0,1,.4,1.69c0,2.29-1.79,3.74-5.39,4.37C17.1,43.57,19.22,45.15,19.22,47.68ZM7.11,35.53v6.82h2.4a3.57,3.57,0,0,0,2.81-1A3.46,3.46,0,0,0,13.23,39a3.4,3.4,0,0,0-1-2.4,3.71,3.71,0,0,0-2.79-1Zm5.65,14.9a3.1,3.1,0,0,0,1-2.48,4.11,4.11,0,0,0-1.22-3.07,4.4,4.4,0,0,0-3.23-1.19H7.11v5.42a2.24,2.24,0,0,0,.52,1.66,2.42,2.42,0,0,0,1.72.5h.76A3.88,3.88,0,0,0,12.76,50.43Z"/><path d="M38.61,47.85c0,.12,0,.29,0,.51s-.07.6-.16,1.14A10.92,10.92,0,0,1,38.09,51a3.54,3.54,0,0,1-.63,1.14,1.27,1.27,0,0,1-1,.52H21.12V51.43A2.58,2.58,0,0,0,23,50.92a2.56,2.56,0,0,0,.47-1.73V37.63A2.53,2.53,0,0,0,23,35.91a2.57,2.57,0,0,0-1.88-.52V34.18h9.65v1.21a2.93,2.93,0,0,0-2,.53,2.23,2.23,0,0,0-.57,1.71V48.76a2.36,2.36,0,0,0,2.67,2.67h.81a5,5,0,0,0,1.87-.36,5.69,5.69,0,0,0,1.52-.89,10.35,10.35,0,0,0,1.11-1.07,5.73,5.73,0,0,0,.7-.91l.24-.35Z"/><path d="M73.91,40a11.25,11.25,0,0,0-.24-1.29,7,7,0,0,0-.6-1.64,3.73,3.73,0,0,0-3.28-1.88,4.69,4.69,0,0,0-4,2.09,9.64,9.64,0,0,0-1.51,5.76,9.25,9.25,0,0,0,1.82,6.13,5.78,5.78,0,0,0,4.62,2.17,4.57,4.57,0,0,0,2.1-.48,4.28,4.28,0,0,0,1.48-1.15,11.25,11.25,0,0,0,.92-1.36,4.61,4.61,0,0,0,.48-1.16l.14-.46c.14,0,.33.09.55.16a2.83,2.83,0,0,1,.89.59,1.44,1.44,0,0,1,.55,1.11c0,1.06-.72,2-2.17,3A10.29,10.29,0,0,1,70.06,53a12,12,0,0,1-7.9-2.56,8.61,8.61,0,0,1-3.1-7A8.93,8.93,0,0,1,59.75,40a9.83,9.83,0,0,1,2-3.06,9.56,9.56,0,0,1,3.46-2.24A13.14,13.14,0,0,1,70,33.8a9.92,9.92,0,0,1,5.62,1.39,3.93,3.93,0,0,1,2,3.22,1.75,1.75,0,0,1-1.1,1.7,6.12,6.12,0,0,1-2.62.51C73.94,40.48,73.93,40.28,73.91,40Z"/><path d="M101.18,50.16a2.53,2.53,0,0,1-.84,1.85,3.28,3.28,0,0,1-2.42.82,7.42,7.42,0,0,1-3.18-.69,8.56,8.56,0,0,1-2.73-2,20.92,20.92,0,0,1-2.19-2.89c-.64-1-1.32-2.24-2-3.68l-1,.87v4.77a2.34,2.34,0,0,0,.52,1.72,2.85,2.85,0,0,0,2,.51v1.22H79.67V51.4a2.55,2.55,0,0,0,1.87-.51A2.49,2.49,0,0,0,82,49.17V37.63a2.47,2.47,0,0,0-.48-1.72,2.55,2.55,0,0,0-1.87-.52V34.18H89.1v1.21a2.56,2.56,0,0,0-1.87.52,2.53,2.53,0,0,0-.47,1.72v4.93s.92-.77,2.69-2.35,2.75-2.47,2.91-2.63a2,2,0,0,0,.73-1.24.8.8,0,0,0-.44-.68,2.2,2.2,0,0,0-1.15-.27V34.18h7.66v1.21a5.24,5.24,0,0,0-1.88.42A6.29,6.29,0,0,0,95.38,37l-5,4.4a15.07,15.07,0,0,0,3.73,4.69c1.79,1.6,3.39,2.39,4.81,2.39a2.65,2.65,0,0,0,.89-.13,1.62,1.62,0,0,0,.52-.27l.13-.13A3.5,3.5,0,0,1,101.18,50.16Z"/><polygon points="50.59 0 53.07 3.79 56.86 6.28 53.07 8.76 50.59 12.55 48.11 8.76 44.31 6.28 48.11 3.79 50.59 0"/><path d="M56.75,49.27,50.28,33.86l-4.13.32a5.55,5.55,0,0,1-.43,2.1L43.27,42.4c-2.29.42-3.72,4.11-3.72,4.11a6.94,6.94,0,0,1,2.5-1.08L40.5,49.3c-.56,1.4-1.33,2.1-2.32,2.1v1.22h6.33V51.4a1.82,1.82,0,0,1-2-2.07,4.71,4.71,0,0,1,.35-1.46l.84-2.18.09-.26a3.47,3.47,0,0,1,.89.34c2.33,1.3,4.06-.2,5.1-1.65l0,.09.56,1.48,1.08,2.59a5.66,5.66,0,0,1,.43,1.53,1.38,1.38,0,0,1-.5,1.24,2.61,2.61,0,0,1-1.52.35v1.22H59V51.4C58.09,51.4,57.34,50.69,56.75,49.27ZM45.19,42.85a2.55,2.55,0,0,0-.43-.23l2.12-5.56c.16.38.58,1.41,1.24,3.09.48,1.21.9,2.24,1.25,3.11A4,4,0,0,1,45.19,42.85Z"/></g></g></svg>