<svg xmlns="http://www.w3.org/2000/svg" viewBox="0 0 91.01 44.63"><title>arnter-partner-bubble</title><g id="Capa_2" data-name="Capa 2"><g id="Capa_1-2" data-name="Capa 1"><path d="M20.07,41.19a5.66,5.66,0,0,1-.28-2.42,8.49,8.49,0,0,1,.65-2.44,9.71,9.71,0,0,1,1.36-2.25,11,11,0,0,1,1.87-1.87,9.12,9.12,0,0,1,2.19-1.27,6,6,0,0,1,2.3-.48,5.12,5.12,0,0,1,1.07.13,4.08,4.08,0,0,1,1,.4,2.92,2.92,0,0,1,.82.69,1.89,1.89,0,0,1,.39,1,3.85,3.85,0,0,1-.18,1.25,9,9,0,0,1-.5,1.31,12,12,0,0,1-.61,1.14l-.49.81a3.43,3.43,0,0,1-.8.53,2.84,2.84,0,0,1-1.28.27,2.55,2.55,0,0,1-.95-.19,2.06,2.06,0,0,1-.81-.54,1.53,1.53,0,0,1-.4-.88,1.66,1.66,0,0,1,.35-1.14,2.21,2.21,0,0,1,1.06-.82c.38-.13.75-.24,1.12-.33a.8.8,0,0,1,.08-.29,1.47,1.47,0,0,0,.13-.37,1.15,1.15,0,0,0,0-.36.33.33,0,0,0-.23-.24h0a1,1,0,0,0-1.09.12,4.44,4.44,0,0,0-1.16,1.17,9.41,9.41,0,0,0-1,1.82,8.26,8.26,0,0,0-.6,2.11,5.14,5.14,0,0,0,.06,2,2.65,2.65,0,0,0,1,1.55h0a1.93,1.93,0,0,0,1.23.39,3.64,3.64,0,0,0,1.18-.47,4.83,4.83,0,0,0,1-.86c.34-.39.7-.82,1.07-1.31s.75-1,1.13-1.59.76-1.17,1.14-1.78a2.36,2.36,0,0,1,1-1,1.2,1.2,0,0,1,.91-.1.93.93,0,0,1,.57.62,1.36,1.36,0,0,1-.11,1.08c-.61,1.14-1.32,2.31-2.12,3.51a19.65,19.65,0,0,1-2.6,3.17,5.09,5.09,0,0,1-1.8,1,7.09,7.09,0,0,1-2.34.38,6.08,6.08,0,0,1-3.23-.93,5.42,5.42,0,0,1-1.26-1.07A4.07,4.07,0,0,1,20.07,41.19Z"/><path d="M44.34,37.23c-.61,1.11-1.27,2.23-2,3.34A11.26,11.26,0,0,1,40,43.31a5.56,5.56,0,0,1-1.64.95,3.56,3.56,0,0,1-1.87.14,2.06,2.06,0,0,1-1.7-1.14,5.57,5.57,0,0,1-.5-2.21,6.43,6.43,0,0,1,.47-2.8c.35-.85.74-1.7,1.16-2.54a4.88,4.88,0,0,0-.68.19,1.54,1.54,0,0,1-.67.07c-.19.31-.33.54-.43.69s-.2.31-.33.49l-.48.71-.9,1.35a1.64,1.64,0,0,1-.85.82,1.28,1.28,0,0,1-.9,0,1,1,0,0,1-.55-.6,1.24,1.24,0,0,1,.18-1.05L32.25,35h0a2.4,2.4,0,0,1-.2-1.27,6.32,6.32,0,0,1,.34-1.58,8,8,0,0,1,.76-1.59,7.7,7.7,0,0,1,1-1.36,4.33,4.33,0,0,1,1.16-.91,1.52,1.52,0,0,1,1.14-.17,1.56,1.56,0,0,1,1,.63,1.89,1.89,0,0,1,.25,1,4,4,0,0,1-.21,1.15c-.14.39-.26.73-.37,1l.65-.78c.14-.17.45-.23,1-.17a6.62,6.62,0,0,1,1.53.39,7.34,7.34,0,0,1,1.4.71c.41.28.58.54.53.79-.21.46-.45.91-.7,1.34s-.52.85-.79,1.26-.52.82-.77,1.23A7.53,7.53,0,0,0,39.31,38a4.67,4.67,0,0,0-.37,1.24.77.77,0,0,0,.25.82c.12.1.2.14.26.12a.62.62,0,0,0,.2-.12,3.15,3.15,0,0,0,.22-.29,1.49,1.49,0,0,1,.24-.28,9.55,9.55,0,0,0,.59-.79l.55-.85.45-.7.24-.39a1.66,1.66,0,0,1,.84-.9,1.36,1.36,0,0,1,.93,0,1.24,1.24,0,0,1,.66.55A.75.75,0,0,1,44.34,37.23Z"/><path d="M46.29,44.63a6.4,6.4,0,0,1-1.46-.18,6.56,6.56,0,0,1-1.46-.55,5,5,0,0,1-1.23-.9,3.12,3.12,0,0,1-.77-1.26A4.69,4.69,0,0,1,41,40.29a7.11,7.11,0,0,1,.06-1.46,6.69,6.69,0,0,1,.34-1.42A11.13,11.13,0,0,1,42,36.09a11.86,11.86,0,0,1,1.43-2.2,11.21,11.21,0,0,1,1.8-1.78,9.07,9.07,0,0,1,2-1.2,5,5,0,0,1,2-.45,4.07,4.07,0,0,1,2.47.59,1.87,1.87,0,0,1,.78,1.51,4.21,4.21,0,0,1-.59,2,12.26,12.26,0,0,1-1.54,2.21,14.15,14.15,0,0,1-2.15,2,11.32,11.32,0,0,1-2.37,1.39,2.18,2.18,0,0,0,.28,1.14,1.05,1.05,0,0,0,.68.46,1.83,1.83,0,0,0,.94-.07,3.67,3.67,0,0,0,1-.5,4.39,4.39,0,0,0,1.08-.9c.37-.41.74-.86,1.12-1.35s.75-1,1.11-1.52.67-1,1-1.48a1.68,1.68,0,0,1,.85-.82,1.12,1.12,0,0,1,.88,0,1,1,0,0,1,.56.62,1.22,1.22,0,0,1-.14,1c-.61,1-1.23,2-1.85,2.93a16.93,16.93,0,0,1-2,2.49A9.27,9.27,0,0,1,49,44,5.73,5.73,0,0,1,46.29,44.63Zm-.6-7.22c.26-.16.57-.35.91-.59a7.88,7.88,0,0,0,1.09-.94,4.61,4.61,0,0,0,.94-1.17,4.76,4.76,0,0,0,.49-1.12c.07-.31,0-.49-.1-.56s-.41.09-.79.47a7.44,7.44,0,0,0-.76.91c-.26.35-.5.71-.73,1.06s-.44.69-.63,1-.33.56-.42.73Z"/><path d="M59.7,30.38a5.47,5.47,0,0,1,1,.1,4.83,4.83,0,0,1,1.06.33,2.7,2.7,0,0,1,.84.59,1.47,1.47,0,0,1,.4.87,1.85,1.85,0,0,1,1.06.49,2.33,2.33,0,0,1,.63.8,23.82,23.82,0,0,0-.94,2.67,12.11,12.11,0,0,0-.46,2.35,3.7,3.7,0,0,0,0,1.34c.09.22.21.3.37.24a1.52,1.52,0,0,0,.57-.46c.22-.25.43-.51.62-.77s.38-.53.57-.84l.54-.87c.18-.28.32-.53.45-.75s.21-.37.27-.47a2.62,2.62,0,0,1,1-1.18,1.14,1.14,0,0,1,1-.08,1,1,0,0,1,.58.64,1.35,1.35,0,0,1-.08,1c-.44.75-.87,1.49-1.29,2.24s-.88,1.47-1.37,2.18c-.31.42-.62.81-1,1.19a6,6,0,0,1-1,1,5,5,0,0,1-1.23.66,4,4,0,0,1-1.43.25,2.64,2.64,0,0,1-1.65-.55,1.77,1.77,0,0,1-.7-1.46,12.3,12.3,0,0,1-1.1,1,7.81,7.81,0,0,1-1.29.89,5.47,5.47,0,0,1-1.4.56,3.19,3.19,0,0,1-1.44,0,3.75,3.75,0,0,1-2.09-1.2,4,4,0,0,1-.88-2.18,8,8,0,0,1,.43-2.91,14.67,14.67,0,0,1,1.77-3.63,11.55,11.55,0,0,1,1.63-2,9,9,0,0,1,1.63-1.28,6.21,6.21,0,0,1,1.53-.66A5.66,5.66,0,0,1,59.7,30.38Zm-2.21,5.33a7.65,7.65,0,0,0-1.08,1.65,9.28,9.28,0,0,0-.6,1.58,4.28,4.28,0,0,0-.18,1.29,1.44,1.44,0,0,0,.21.79c.07.13.23.1.48-.12a6.83,6.83,0,0,0,.87-.93c.34-.41.7-.9,1.1-1.46s.79-1.15,1.16-1.75.73-1.19,1.06-1.75.62-1,.84-1.45.14-.61-.1-.73a.73.73,0,0,0-.7,0,6.12,6.12,0,0,0-1.27.9A13.41,13.41,0,0,0,57.49,35.71Z"/><path d="M86.34,39.3c.36-.46.74-1,1.12-1.54s.73-1.12,1.06-1.67a1.93,1.93,0,0,1,.91-1,1.17,1.17,0,0,1,1-.07,1,1,0,0,1,.57.68,1.67,1.67,0,0,1-.21,1.24l-1.09,2c-.32.59-.64,1.12-.94,1.61s-.61.94-.92,1.35a12.16,12.16,0,0,1-1,1.16A4.14,4.14,0,0,1,85,44.15a5.46,5.46,0,0,1-2.17.28,3.28,3.28,0,0,1-1.85-.7,2.2,2.2,0,0,1-.77-1.82,3.42,3.42,0,0,1,.17-1.08c.14-.47.31-1,.52-1.55s.42-1.14.64-1.75.4-1.15.55-1.66a7.29,7.29,0,0,0,.25-1.32c0-.37,0-.62-.21-.73a1,1,0,0,0-1.23.27,7,7,0,0,0-1.23,1.77,20.24,20.24,0,0,0-1.12,2.61c-.34,1-.64,1.9-.9,2.78s-.45,1.63-.58,2.26A3.7,3.7,0,0,0,77,44.6l-1.47-.14a5.41,5.41,0,0,1-1.33-.26,2.5,2.5,0,0,1-1-.6,1.78,1.78,0,0,1-.5-1.15,2.86,2.86,0,0,1,.17-.9c.13-.45.3-1,.5-1.56s.41-1.22.64-1.88.44-1.28.62-1.85A12,12,0,0,0,75,34.78c.08-.41.07-.67,0-.79-.28-.3-.61-.3-1,0a5.58,5.58,0,0,0-1.17,1.49,21.12,21.12,0,0,0-1.18,2.38c-.4.91-.73,1.8-1,2.68a22.66,22.66,0,0,0-.66,2.38,4.23,4.23,0,0,0-.14,1.49c-.57,0-1.14,0-1.7-.07a6.2,6.2,0,0,1-1.52-.31,2.66,2.66,0,0,1-1.07-.72A1.8,1.8,0,0,1,65.13,42a10.92,10.92,0,0,1,.34-1.57q.28-1,.69-2.28c.26-.84.55-1.69.85-2.56l.86-2.39c.27-.73.5-1.33.7-1.81a3.93,3.93,0,0,1,.39-.8h0c0-.08.18-.15.41-.22a5.61,5.61,0,0,1,.88-.14,9.36,9.36,0,0,1,1.07,0c.37,0,.71,0,1,.07a2.6,2.6,0,0,1,.76.2c.19.1.26.21.23.35a1.4,1.4,0,0,1-.13.33c-.05.06-.1.15-.16.24a6,6,0,0,1,1.87-.92,5,5,0,0,1,1.93-.18,3.13,3.13,0,0,1,1.6.61,2.38,2.38,0,0,1,.89,1.47,6.93,6.93,0,0,1,2.39-1.8,5.21,5.21,0,0,1,2.93-.18,2.32,2.32,0,0,1,1.44.8,2.85,2.85,0,0,1,.59,1.38,5,5,0,0,1,0,1.62,11.4,11.4,0,0,1-.38,1.53c-.21.5-.43,1-.64,1.59a14.92,14.92,0,0,0-.53,1.6,3.16,3.16,0,0,0-.13,1.2c0,.19.15.27.3.23a1.33,1.33,0,0,0,.54-.37A5.86,5.86,0,0,0,86.34,39.3Z"/><path d="M13.45,4.76a11.93,11.93,0,0,0-2,.85A15.09,15.09,0,0,0,7.67,8.39a10.59,10.59,0,0,0-1.41,1.78,7.63,7.63,0,0,0-.89,1.93,5.1,5.1,0,0,0-.19,2c-.4.08-.76.15-1.1.2a5.07,5.07,0,0,1-.9.09,4.35,4.35,0,0,1-1.44-.22,2.38,2.38,0,0,1-1.06-.67,2.68,2.68,0,0,1-.59-1.18,4.8,4.8,0,0,1,0-1.75,5.7,5.7,0,0,1,1.5-2.89A16,16,0,0,1,4.74,5,28.11,28.11,0,0,1,9,2.67,32.9,32.9,0,0,1,13.65,1,24.62,24.62,0,0,1,16.86.29,24.3,24.3,0,0,1,20.57,0a17.83,17.83,0,0,1,3.21.29,8.37,8.37,0,0,1,2.76,1,5.43,5.43,0,0,1,1.93,1.88,5.44,5.44,0,0,1,.73,3,6.46,6.46,0,0,1-.94,3.2,11,11,0,0,1-2.2,2.57,14,14,0,0,1-2.85,1.86,15.54,15.54,0,0,1-2.84,1.09,5.71,5.71,0,0,1,2.4,1.71,3.54,3.54,0,0,1,.68,2.08,4.34,4.34,0,0,1-.94,2.58,10.23,10.23,0,0,1-2.46,2.34,14.13,14.13,0,0,1-3.39,1.69,11.47,11.47,0,0,1-3.76.64,8.86,8.86,0,0,1-2.56-.37A6.8,6.8,0,0,1,8.1,24.35h.06a5.15,5.15,0,0,1-1.08-.91,3.75,3.75,0,0,1-.57-.94,3.58,3.58,0,0,1-.23-1c0-.34,0-.7,0-1.09a8.75,8.75,0,0,1,.37-2.32,24.89,24.89,0,0,1,1-2.71c.41-1,.86-1.92,1.36-2.91s1-2,1.6-2.91,1.13-1.85,1.69-2.7,1.08-1.6,1.56-2.25ZM23.71,6.57a2.19,2.19,0,0,0-.91-1.79,5,5,0,0,0-2.63-.91c-.9,1.28-1.83,2.66-2.79,4.12s-1.87,2.94-2.72,4.43-1.6,3-2.26,4.43A21.66,21.66,0,0,0,11,21a1.67,1.67,0,0,0,.14,1.45,1.32,1.32,0,0,0,1.06.44,5.25,5.25,0,0,0,2-.46,8.11,8.11,0,0,0,2.06-1.22,6.15,6.15,0,0,0,1.5-1.7,2.69,2.69,0,0,0,.36-1.93,1.85,1.85,0,0,0-.46-.87,4.44,4.44,0,0,0-.83-.73,8.81,8.81,0,0,0-.91-.55l-.72-.34-.51-.26a1.31,1.31,0,0,1,.37-.67,1.88,1.88,0,0,1,.6-.33.92.92,0,0,1,.23-.09l.2-.08a27.48,27.48,0,0,0,3.44-1.87A15.67,15.67,0,0,0,21.9,9.9a7.78,7.78,0,0,0,1.37-1.77A3.43,3.43,0,0,0,23.71,6.57Z"/><path d="M30.53,10.53a4.06,4.06,0,0,1,1.1-.35A8,8,0,0,1,33,10.07a4,4,0,0,1,1.2.16,1.56,1.56,0,0,1,.77.45.67.67,0,0,1,0,.77c-.19.32-.46.78-.79,1.39s-.67,1.26-1,2A21.09,21.09,0,0,0,32.23,17a8,8,0,0,0-.48,2q-.21,1.45.12,1.62c.22.1.58-.3,1.08-1.22a38.12,38.12,0,0,0,2-4.1c.58-1.38,1.21-2.74,1.87-4.08a1.15,1.15,0,0,1,.62-.56,4.4,4.4,0,0,1,1.06-.32,6,6,0,0,1,1.21-.11,6.05,6.05,0,0,1,1.12.13,1.65,1.65,0,0,1,.74.36.47.47,0,0,1,.09.59c-.18.36-.41.84-.69,1.42s-.57,1.21-.86,1.88-.56,1.35-.81,2a14.28,14.28,0,0,0-.59,1.89,3.78,3.78,0,0,0-.13,1.16c0,.3.11.48.23.55s.29,0,.5-.13a3,3,0,0,0,.69-.86c.13-.18.29-.41.47-.71l.56-.91.54-.92a7.4,7.4,0,0,1,.46-.73,1.55,1.55,0,0,1,.84-.91,1.64,1.64,0,0,1,1-.06,1.2,1.2,0,0,1,.69.51.69.69,0,0,1,0,.8c-.34.57-.63,1.08-.87,1.52L43,19.12c-.21.39-.42.78-.64,1.16s-.49.8-.82,1.26a13,13,0,0,1-1,1.26,6.69,6.69,0,0,1-1.35,1.14,4.44,4.44,0,0,1-1.62.61,3,3,0,0,1-1.77-.28,2.71,2.71,0,0,1-1.08-1,4.28,4.28,0,0,1-.47-1.29,9.65,9.65,0,0,1-1,1.08,6.44,6.44,0,0,1-1.21.92,4.87,4.87,0,0,1-1.45.54,4.07,4.07,0,0,1-1.63,0,2.74,2.74,0,0,1-1.21-.71,4,4,0,0,1-.8-1.1,4.74,4.74,0,0,1-.43-1.23,3.55,3.55,0,0,1-.07-1.15A8.2,8.2,0,0,1,26.88,18c.27-.83.59-1.66.95-2.48s.74-1.61,1.13-2.37.72-1.43,1-2A1.06,1.06,0,0,1,30.53,10.53Z"/><path d="M52.87,3,51.8,4.82c-.39.67-.77,1.35-1.16,2.05s-.74,1.37-1.08,2a18.72,18.72,0,0,0-.83,1.75,7.78,7.78,0,0,1,1.37-.36,5.55,5.55,0,0,1,1.52,0,4,4,0,0,1,1.37.42,2,2,0,0,1,.91,1,3.35,3.35,0,0,1,.19,1.66,12.07,12.07,0,0,1-.41,2,19.84,19.84,0,0,1-.73,2c-.28.64-.52,1.17-.73,1.59a10.33,10.33,0,0,1-1.88,2.48A10.67,10.67,0,0,1,48,23.16a8.39,8.39,0,0,1-2.4.92,4.62,4.62,0,0,1-2.13,0,3.24,3.24,0,0,1-2.08-1.55,5,5,0,0,1-.53-2.5,12.27,12.27,0,0,1,.49-2.61c.29-1,.65-2.09,1.09-3.23s.94-2.29,1.5-3.47,1.12-2.29,1.68-3.35,1.11-2,1.64-2.9,1-1.57,1.38-2.11a2,2,0,0,1,1-.59,4.51,4.51,0,0,1,1.45-.18,2.63,2.63,0,0,1,1.28.36A1,1,0,0,1,52.87,3ZM46.18,15.8c-.11.25-.24.57-.4.95s-.29.78-.43,1.19a7.77,7.77,0,0,0-.28,1.25,2.42,2.42,0,0,0,.06,1.09c.11.34.29.51.52.5a1.41,1.41,0,0,0,.79-.34,6.8,6.8,0,0,0,.92-.89c.32-.37.64-.77,1-1.19a6.13,6.13,0,0,0,1-2.37,3.94,3.94,0,0,0-.09-1.65c-.11-.55-.31-.85-.58-.9a1.15,1.15,0,0,0-.89.29,4.22,4.22,0,0,0-.91,1A5.11,5.11,0,0,0,46.18,15.8Z"/><path d="M65.77,3,64.7,4.82c-.39.67-.78,1.35-1.16,2.05l-1.09,2c-.34.65-.62,1.24-.83,1.75A7.67,7.67,0,0,1,63,10.28a5.48,5.48,0,0,1,1.51,0,3.85,3.85,0,0,1,1.37.42,2,2,0,0,1,.92,1A3.46,3.46,0,0,1,67,13.31a11.2,11.2,0,0,1-.42,2,17.68,17.68,0,0,1-.73,2c-.28.64-.52,1.17-.73,1.59a10.29,10.29,0,0,1-1.87,2.48,10.72,10.72,0,0,1-2.32,1.75,8.39,8.39,0,0,1-2.4.92,4.62,4.62,0,0,1-2.13,0,3.22,3.22,0,0,1-2.07-1.55,4.86,4.86,0,0,1-.53-2.5,12.27,12.27,0,0,1,.49-2.61c.28-1,.64-2.09,1.08-3.23s.94-2.29,1.5-3.47S58,8.42,58.55,7.36s1.11-2,1.63-2.9,1-1.57,1.39-2.11a2,2,0,0,1,1-.59A4.57,4.57,0,0,1,64,1.58a2.59,2.59,0,0,1,1.27.36A1,1,0,0,1,65.77,3ZM59.08,15.8c-.11.25-.25.57-.4.95s-.3.78-.43,1.19A7.8,7.8,0,0,0,58,19.19,2.74,2.74,0,0,0,58,20.28c.12.34.29.51.53.5a1.44,1.44,0,0,0,.79-.34,6.79,6.79,0,0,0,.91-.89c.33-.37.65-.77,1-1.19a6,6,0,0,0,1-2.37,4.3,4.3,0,0,0-.09-1.65c-.11-.55-.31-.85-.59-.9a1.13,1.13,0,0,0-.88.29,4.25,4.25,0,0,0-.92,1A5,5,0,0,0,59.08,15.8Z"/><path d="M67.29,15.8q.93-2.34,1.83-4.46c.59-1.4,1.16-2.69,1.71-3.85s1.07-2.21,1.54-3.12.92-1.66,1.32-2.28a1.77,1.77,0,0,1,.91-.33,10.06,10.06,0,0,1,1.59-.12,9.5,9.5,0,0,1,1.56.12c.48.09.75.24.83.45a6.59,6.59,0,0,1-.34.92l-.63,1.32-.83,1.62-1,1.82A95,95,0,0,0,71.26,18a5,5,0,0,0-.34,1.14,2.41,2.41,0,0,0,0,1c0,.25.19.36.4.34s.53-.29,1-.8l.76-1c.27-.38.54-.76.78-1.15s.49-.76.7-1.12.39-.64.51-.87a1.76,1.76,0,0,1,.92-1,1.15,1.15,0,0,1,.93,0,1.12,1.12,0,0,1,.58.67,1.36,1.36,0,0,1-.15,1.09c-.59,1.09-1.08,2-1.47,2.62s-.76,1.23-1.1,1.71L73.82,22a8.29,8.29,0,0,1-1.06,1.22,5.59,5.59,0,0,1-1.3.9,3.52,3.52,0,0,1-1.6.36,3.25,3.25,0,0,1-2.22-1.15,4.93,4.93,0,0,1-.94-2.22,9,9,0,0,1,0-2.7A14.59,14.59,0,0,1,67.29,15.8Z"/><path d="M78.75,24.47a6,6,0,0,1-1.46-.19,6.24,6.24,0,0,1-1.46-.54,5.16,5.16,0,0,1-1.23-.91,3.05,3.05,0,0,1-.77-1.26,4.69,4.69,0,0,1-.33-1.45,7.14,7.14,0,0,1,.06-1.46,7.54,7.54,0,0,1,.34-1.42,13.08,13.08,0,0,1,.56-1.32,12.31,12.31,0,0,1,1.43-2.19A10.81,10.81,0,0,1,77.69,12a9.36,9.36,0,0,1,2-1.21,5.18,5.18,0,0,1,2-.44,4,4,0,0,1,2.47.59,1.87,1.87,0,0,1,.77,1.5,4.27,4.27,0,0,1-.59,2,12.46,12.46,0,0,1-1.54,2.21,14,14,0,0,1-2.14,2A11,11,0,0,1,78.29,20a2.21,2.21,0,0,0,.29,1.15,1,1,0,0,0,.67.46,1.94,1.94,0,0,0,.94-.07,4.06,4.06,0,0,0,1-.51,4.37,4.37,0,0,0,1.07-.9c.37-.41.75-.86,1.13-1.35s.75-1,1.1-1.52.67-1,1-1.48a1.63,1.63,0,0,1,.84-.81,1.15,1.15,0,0,1,.89,0,1.08,1.08,0,0,1,.56.62,1.28,1.28,0,0,1-.15,1.05c-.61,1-1.22,2-1.84,2.92a16.94,16.94,0,0,1-2,2.5,9.05,9.05,0,0,1-2.3,1.75A5.8,5.8,0,0,1,78.75,24.47Zm-.6-7.23a10.42,10.42,0,0,0,.91-.59,7.85,7.85,0,0,0,1.09-.93,4.61,4.61,0,0,0,.94-1.18,4.76,4.76,0,0,0,.49-1.12c.08-.3,0-.49-.1-.56s-.4.1-.79.48a8.11,8.11,0,0,0-.75.9c-.26.36-.5.71-.73,1.06s-.44.69-.63,1-.34.56-.43.73Z"/></g></g></svg>