<svg xmlns="http://www.w3.org/2000/svg" viewBox="0 0 90.34 96.56"><title>arnter-partner-fragua</title><g id="Capa_2" data-name="Capa 2"><g id="Capa_1-2" data-name="Capa 1"><path d="M25.62,4.64a41,41,0,0,0-7.55,5A37,37,0,0,0,9,20.5a29.08,29.08,0,0,0-2.33,5.83H8.21A29.07,29.07,0,0,1,11,21.7a38.81,38.81,0,0,1,9.34-9.19,43.66,43.66,0,0,1,9.27-4.93Z"/><path d="M80.2,20.69a36.93,36.93,0,0,0-9-10.94A42.12,42.12,0,0,0,44.65,0,40.54,40.54,0,0,0,28,3.56l4.29,3.05A39.94,39.94,0,0,1,44.64,4.69a43,43,0,0,1,24.3,8,38.81,38.81,0,0,1,9.29,9.24A29.83,29.83,0,0,1,81,26.53H82.5A29.3,29.3,0,0,0,80.2,20.69Z"/><path d="M43.67,30.18,31.84,38.92a4.07,4.07,0,0,0-1.66,3.27l0,14.78,5.73,0,0-13.44a4.12,4.12,0,0,1,1-2.64L45,31.47Z"/><path d="M34.13,20.59,15.74,29.47a4.08,4.08,0,0,0-2.3,3.66l-.07,23.8,9,0,.05-20.25a4.1,4.1,0,0,1,1.4-3.06L36.27,22.73Z"/><path d="M23,2.29,21.58,3.72l27.52,28a4.08,4.08,0,0,1,1.17,2.87L50.21,57l8.23,0,.08-26.29a4.08,4.08,0,0,0-1.65-3.28Z"/><path d="M46.43,13.87l-1.56,1.48L67.79,31.63A4,4,0,0,1,69.49,35h0l-.06,22.13,7.53,0L77,32.85a4.07,4.07,0,0,0-2.15-3.6Z"/><path d="M.73,56.71A195.25,195.25,0,0,1,23,54.27c3.71-.28,7.41-.33,11.12-.5s7.4-.09,11.11-.14,7.4.1,11.11.21,7.4.26,11.11.56A197.44,197.44,0,0,1,89.61,57v.37l-44.44.07L.73,57.08Z"/><path d="M12.21,85.59v.48c0,.06,0,.1-.09.1H10c-.06,0-.1,0-.1-.09V83A.08.08,0,0,1,10,83H12.1a.08.08,0,0,1,.09.09v.5a.08.08,0,0,1-.09.09H10.7v.58h1.22a.08.08,0,0,1,.09.09v.49c0,.06,0,.1-.09.1H10.7v.61h1.42A.09.09,0,0,1,12.21,85.59Z"/><path d="M13.54,85.85a.1.1,0,0,1,0-.14l.27-.44a.09.09,0,0,1,.13,0,1.41,1.41,0,0,0,.87.3c.21,0,.39-.08.39-.29s-.17-.28-.61-.42-1-.35-1-1,.48-1,1.22-1a1.91,1.91,0,0,1,1,.29.09.09,0,0,1,0,.13l-.24.41c0,.06-.09.07-.14,0a1.33,1.33,0,0,0-.69-.2c-.24,0-.43.07-.43.26s.19.23.62.38.94.34.93,1-.44,1-1.17,1A1.91,1.91,0,0,1,13.54,85.85Z"/><path d="M20,83.07v.49a.08.08,0,0,1-.09.09h-1v2.44a.08.08,0,0,1-.09.09h-.59a.08.08,0,0,1-.09-.09V83.65h-1a.08.08,0,0,1-.09-.09v-.49c0-.06,0-.09.1-.09h2.68C19.93,83,20,83,20,83.07Z"/><path d="M23.78,86.2h-.69a.13.13,0,0,1-.11-.06l-.54-.81H22v.77a.08.08,0,0,1-.09.09h-.59a.08.08,0,0,1-.09-.09v-3a.08.08,0,0,1,.09-.09h1.11a1.2,1.2,0,0,1,1.33,1.2,1,1,0,0,1-.61,1l.64.92C23.88,86.15,23.85,86.2,23.78,86.2ZM22,84.67h.37c.36,0,.6-.19.6-.49a.53.53,0,0,0-.6-.53H22Z"/><path d="M25.17,84.79V83.08a.08.08,0,0,1,.09-.09h.59a.08.08,0,0,1,.09.09v1.77a.69.69,0,1,0,1.37,0V83.09c0-.06,0-.1.09-.1H28a.08.08,0,0,1,.09.09V84.8a1.45,1.45,0,1,1-2.9,0Z"/><path d="M29.48,84.6A1.63,1.63,0,0,1,31.21,83a1.81,1.81,0,0,1,1,.28.08.08,0,0,1,0,.12l-.25.45c0,.06-.07.06-.12,0a1.37,1.37,0,0,0-.63-.15.87.87,0,0,0-1,.92.88.88,0,0,0,1,.93,1.22,1.22,0,0,0,.62-.16.1.1,0,0,1,.13,0l.24.44s0,.1,0,.13a1.72,1.72,0,0,1-1,.27A1.63,1.63,0,0,1,29.48,84.6Z"/><path d="M36.2,83.11v.49a.08.08,0,0,1-.09.09h-1v2.45a.08.08,0,0,1-.09.09h-.59c-.06,0-.09,0-.09-.1V83.69h-1a.08.08,0,0,1-.09-.09v-.5c0-.06,0-.09.1-.09h2.68A.08.08,0,0,1,36.2,83.11Z"/><path d="M37.47,84.82V83.11a.08.08,0,0,1,.09-.09h.58a.08.08,0,0,1,.09.09v1.77a.69.69,0,1,0,1.37,0V83.12a.08.08,0,0,1,.09-.09h.58a.08.08,0,0,1,.09.09v1.71a1.46,1.46,0,0,1-2.91,0Z"/><path d="M44.47,86.25h-.69a.14.14,0,0,1-.11-.06l-.54-.8h-.4v.77a.08.08,0,0,1-.09.09h-.58a.09.09,0,0,1-.1-.09v-3c0-.06,0-.1.09-.1h1.11a1.21,1.21,0,0,1,1.34,1.19,1.08,1.08,0,0,1-.61,1l.63.92C44.57,86.21,44.55,86.25,44.47,86.25Zm-1.73-1.53h.37c.36,0,.6-.19.6-.49a.54.54,0,0,0-.61-.53h-.36Z"/><path d="M48.75,86.27h-.61a.11.11,0,0,1-.11-.07l-.2-.5H46.59l-.2.5a.12.12,0,0,1-.11.07h-.62c-.06,0-.1,0-.07-.11l1.36-3a.11.11,0,0,1,.11-.07h.33a.11.11,0,0,1,.11.07l1.33,3A.08.08,0,0,1,48.75,86.27ZM46.84,85h.75l-.38-.91Z"/><path d="M49.94,86a.1.1,0,0,1,0-.14l.27-.44a.09.09,0,0,1,.13,0,1.41,1.41,0,0,0,.87.3c.21,0,.39-.08.39-.29s-.16-.29-.6-.42-1-.35-1-1,.48-1,1.22-1a1.83,1.83,0,0,1,1,.29.1.1,0,0,1,0,.13l-.25.41a.09.09,0,0,1-.14,0,1.33,1.33,0,0,0-.69-.2c-.24,0-.43.07-.43.26s.19.23.62.38.94.34.94,1-.45,1-1.18,1A1.91,1.91,0,0,1,49.94,86Z"/><path d="M58.32,83.19,57.2,85V86.2c0,.06,0,.09-.1.09h-.58a.09.09,0,0,1-.1-.1V85l-1.1-1.86c0-.06,0-.11.06-.11h.72a.11.11,0,0,1,.11.07l.63,1.14.63-1.14s.06-.06.11-.06h.67C58.33,83.08,58.36,83.13,58.32,83.19Z"/><path d="M64.24,84.73v1.15a.12.12,0,0,1,0,.11,1.79,1.79,0,0,1-1.18.36,1.65,1.65,0,1,1,0-3.3,1.91,1.91,0,0,1,1,.27.09.09,0,0,1,0,.13l-.24.44a.1.1,0,0,1-.13,0,1.58,1.58,0,0,0-.69-.16.9.9,0,0,0-1,.92.94.94,0,0,0,1,1,1.06,1.06,0,0,0,.48-.1v-.83a.08.08,0,0,1,.09-.09h.53A.08.08,0,0,1,64.24,84.73Z"/><path d="M68.24,86.32h-.69a.13.13,0,0,1-.11-.06l-.54-.8h-.4v.77a.08.08,0,0,1-.09.09h-.59a.08.08,0,0,1-.09-.09v-3a.08.08,0,0,1,.09-.09h1.11a1.2,1.2,0,0,1,1.33,1.2,1,1,0,0,1-.61,1l.64.92C68.34,86.27,68.31,86.32,68.24,86.32ZM66.5,84.79h.37c.36,0,.6-.19.6-.49a.53.53,0,0,0-.6-.53h-.36Z"/><path d="M69.63,84.91V83.2a.08.08,0,0,1,.09-.09h.59a.08.08,0,0,1,.09.09V85a.65.65,0,0,0,.68.71.67.67,0,0,0,.7-.71V83.21c0-.06,0-.1.09-.1h.59a.08.08,0,0,1,.09.09v1.71a1.45,1.45,0,1,1-2.9,0Zm.89-2.1-.1-.27c0-.06,0-.09,0-.12l1-.45a.07.07,0,0,1,.12,0l.17.46a.08.08,0,0,1,0,.12l-1,.28A.08.08,0,0,1,70.52,82.81Z"/><path d="M76.83,86.34h-.62a.1.1,0,0,1-.1-.07l-.2-.5H74.67l-.21.5a.1.1,0,0,1-.1.07h-.62c-.07,0-.1,0-.07-.1l1.36-3a.12.12,0,0,1,.11-.07h.32a.12.12,0,0,1,.11.07l1.33,3C76.93,86.3,76.9,86.34,76.83,86.34Zm-1.92-1.22h.76l-.38-.9Z"/><path d="M78,86a.11.11,0,0,1,0-.15l.27-.43a.08.08,0,0,1,.13,0,1.41,1.41,0,0,0,.87.3c.21,0,.38-.08.38-.29s-.16-.29-.6-.43-1-.35-1-.94.48-1,1.21-1a1.84,1.84,0,0,1,1,.3s0,.08,0,.13l-.25.41A.09.09,0,0,1,80,84a1.36,1.36,0,0,0-.7-.2c-.23,0-.42.06-.42.26s.18.23.62.37.93.35.93,1-.44,1-1.18,1A2,2,0,0,1,78,86Z"/><path d="M8.05,75.6v1.86a.36.36,0,0,1-.4.4l-7.25,0a.36.36,0,0,1-.4-.4L0,67a.36.36,0,0,1,.4-.39H2.7a.36.36,0,0,1,.39.4l0,8.16,4.59,0A.36.36,0,0,1,8.05,75.6Z"/><path d="M19.36,77.89H17a.45.45,0,0,1-.46-.31L15.94,76h-4l-.64,1.58a.45.45,0,0,1-.46.3H8.51c-.3,0-.43-.18-.3-.47L13,67a.47.47,0,0,1,.46-.3h1.17A.47.47,0,0,1,15,67l4.62,10.47C19.79,77.72,19.66,77.9,19.36,77.89Zm-6.72-4.2h2.57l-1.26-3Z"/><path d="M32,67.1v2.05a.36.36,0,0,1-.4.39H26.93v2.22h3.85a.36.36,0,0,1,.39.4v2a.36.36,0,0,1-.4.39H26.92v2.93a.36.36,0,0,1-.4.39H24.24a.36.36,0,0,1-.39-.4l0-10.43a.36.36,0,0,1,.4-.4l7.29,0A.36.36,0,0,1,32,67.1Z"/><path d="M42.63,78H40.06a.55.55,0,0,1-.5-.26l-1.67-2.62H36.6v2.47a.36.36,0,0,1-.4.4H34a.36.36,0,0,1-.4-.4l0-10.42a.36.36,0,0,1,.4-.4h4.31c2.9,0,4.6,1.83,4.59,4.26a3.79,3.79,0,0,1-2.13,3.49l2.08,3C43.07,77.75,43,78,42.63,78Zm-6-5.43h1.49a1.63,1.63,0,0,0,1.79-1.59,1.65,1.65,0,0,0-1.83-1.68H36.61Z"/><path d="M55,78H52.64a.45.45,0,0,1-.46-.3l-.64-1.58h-4l-.64,1.58a.46.46,0,0,1-.46.3H44.11c-.3,0-.43-.18-.3-.46l4.74-10.45a.46.46,0,0,1,.46-.3h1.17a.46.46,0,0,1,.46.31l4.62,10.47C55.39,77.82,55.26,78,55,78Zm-6.72-4.2h2.58l-1.27-3.06Z"/><path d="M66.06,72.43v4a.54.54,0,0,1-.18.41,6.78,6.78,0,0,1-4.35,1.28,5.71,5.71,0,0,1-6-5.71,5.84,5.84,0,0,1,6.17-5.8,7.22,7.22,0,0,1,3.81.92.37.37,0,0,1,.13.54l-1,1.72a.35.35,0,0,1-.54.16,4.49,4.49,0,0,0-2.32-.55,3,3,0,1,0-.11,6,3.71,3.71,0,0,0,1.53-.27V72.42a.36.36,0,0,1,.4-.39h2A.37.37,0,0,1,66.06,72.43Z"/><path d="M67.83,73V67.2a.36.36,0,0,1,.4-.4H70.5a.35.35,0,0,1,.39.4v6A2,2,0,0,0,73,75.47a2.05,2.05,0,0,0,2.16-2.22l0-6a.36.36,0,0,1,.4-.4h2.25a.36.36,0,0,1,.4.4l0,5.79c0,3.42-2.09,5.17-5.22,5.16S67.82,76.41,67.83,73Z"/><path d="M90,78.09H87.67a.46.46,0,0,1-.47-.3l-.63-1.59h-4l-.64,1.58a.45.45,0,0,1-.47.3H79.14c-.3,0-.43-.18-.3-.47l4.74-10.44a.46.46,0,0,1,.46-.31h1.17a.46.46,0,0,1,.46.3l4.62,10.47C90.41,77.91,90.29,78.09,90,78.09Zm-6.71-4.21h2.57l-1.27-3Z"/><path d="M28,92.49a1.44,1.44,0,0,1-2,.85L24.88,93c-.06,0-.08-.06-.06-.11l.92-2.52s.05-.06.11,0c.42.16.64.23,1.07.38A1.45,1.45,0,0,1,28,92.49Zm-.72-.21a.81.81,0,0,0-.6-1.08l-.44-.15c-.21.62-.32.93-.54,1.56l.45.15A.8.8,0,0,0,27.28,92.28Z"/><path d="M32.07,94.53,32,95a.09.09,0,0,1-.11.06c-.79-.18-1.19-.28-2-.49-.06,0-.08,0-.07-.1l.7-2.6a.07.07,0,0,1,.1,0c.75.2,1.12.29,1.87.46a.07.07,0,0,1,.06.1l-.09.43a.09.09,0,0,1-.11.06l-1.27-.31L31,93l1.13.28a.08.08,0,0,1,.07.1l-.1.42s0,.08-.11.06l-1.13-.27-.14.52,1.33.32A.08.08,0,0,1,32.07,94.53Z"/><path d="M34.15,95.2a.09.09,0,0,1,0-.13c.14-.13.2-.2.33-.33a.08.08,0,0,1,.12,0,1.42,1.42,0,0,0,.78.41c.2,0,.38,0,.41-.19s-.12-.28-.51-.47-.85-.47-.75-1,.6-.77,1.27-.65a1.74,1.74,0,0,1,.92.41s0,.07,0,.11l-.28.33a.09.09,0,0,1-.13,0,1.41,1.41,0,0,0-.62-.28c-.21,0-.4,0-.43.16s.14.24.52.43.83.44.74,1-.56.81-1.26.69A1.86,1.86,0,0,1,34.15,95.2Z"/><path d="M41.65,95a1.42,1.42,0,0,1-1.72,1.29l-1.17-.12c-.06,0-.09,0-.08-.09l.3-2.67s0-.07.09-.07l1.12.12A1.43,1.43,0,0,1,41.65,95ZM40.91,95a.81.81,0,0,0-.82-.9l-.46,0c-.06.65-.1,1-.16,1.63l.47,0A.79.79,0,0,0,40.91,95Z"/><path d="M46.05,96v.43s0,.08-.09.08c-.81,0-1.22,0-2,0-.06,0-.09,0-.09-.08,0-1.07,0-1.61.08-2.68a.07.07,0,0,1,.08-.08c.77,0,1.15,0,1.92,0,0,0,.08,0,.08.08v.43a.08.08,0,0,1-.09.09h-1.3v.52h1.15c.06,0,.09,0,.09.08v.44s0,.08-.09.08H44.61V96H46C46,96,46.05,96,46.05,96Z"/><path d="M52.06,93.41l.3,2.67s0,.08-.08.09l-.53.06c-.06,0-.09,0-.09-.07-.09-.81-.13-1.22-.21-2l-.49.22a.08.08,0,0,1-.12,0c-.08-.14-.12-.22-.19-.36a.07.07,0,0,1,0-.11l.9-.45.11,0,.27,0A.08.08,0,0,1,52.06,93.41Z"/><path d="M56.58,93.7a2,2,0,0,1-1.18,2,.08.08,0,0,1-.12,0L55,95.45a.08.08,0,0,1,0-.12,2.24,2.24,0,0,0,.86-.86.8.8,0,0,1-.47.25A.9.9,0,0,1,54.32,94a1,1,0,0,1,.93-1.14A1.06,1.06,0,0,1,56.58,93.7Zm-.7,0a.47.47,0,1,0-.39.47C55.77,94.13,55.92,93.94,55.88,93.71Z"/><path d="M60.77,92.73a2,2,0,0,1-1,2.13.09.09,0,0,1-.13,0l-.27-.26s0-.08,0-.11a2.25,2.25,0,0,0,.79-.93.75.75,0,0,1-.45.28.89.89,0,0,1-1.16-.65A1,1,0,0,1,59.39,92,1,1,0,0,1,60.77,92.73Zm-.69.06a.47.47,0,0,0-.91.23c0,.23.27.34.55.27A.41.41,0,0,0,60.08,92.79Z"/><path d="M62.91,92.5a1.27,1.27,0,0,1,.8-1.78,1.29,1.29,0,0,1,1.69,1,1.27,1.27,0,0,1-.77,1.81A1.29,1.29,0,0,1,62.91,92.5Zm1.81-.58c-.2-.58-.5-.77-.83-.66s-.5.4-.29,1,.5.76.85.64S64.92,92.5,64.72,91.92Z"/></g></g></svg>