<svg xmlns="http://www.w3.org/2000/svg" viewBox="0 0 157.07 42.1"><title>arnter-partner-ensamble</title><g id="Capa_2" data-name="Capa 2"><g id="Capa_1-2" data-name="Capa 1"><path d="M59.23,17.36V5.3h9.08V7.66H61.85v2.45h5.68v2.36H61.85V15H68.4v2.36Z"/><path d="M76.34,17.36V12.22a2.11,2.11,0,0,0-.41-1.4,1.51,1.51,0,0,0-1.18-.47,1.56,1.56,0,0,0-1.19.47,2,2,0,0,0-.44,1.4v5.14H70.5V8.13h2.62V9.45a5.27,5.27,0,0,1,.49-.57,3,3,0,0,1,.59-.47,2.86,2.86,0,0,1,.73-.33A2.73,2.73,0,0,1,75.82,8a3,3,0,0,1,2.32.92A3.6,3.6,0,0,1,79,11.38v6Z"/><path d="M87.74,15.89a2.5,2.5,0,0,1-.75.92,3.6,3.6,0,0,1-1.13.55,5.14,5.14,0,0,1-1.39.18,6.51,6.51,0,0,1-2-.34,6.36,6.36,0,0,1-2-1.06l1.12-1.72a6.43,6.43,0,0,0,1.51.82,4,4,0,0,0,1.4.28,1.45,1.45,0,0,0,.84-.19.58.58,0,0,0,.27-.5v0a.5.5,0,0,0-.16-.37,1.21,1.21,0,0,0-.42-.26,5.31,5.31,0,0,0-.61-.22l-.73-.22a10.23,10.23,0,0,1-1-.34,3.3,3.3,0,0,1-.89-.52,2.44,2.44,0,0,1-.64-.78A2.34,2.34,0,0,1,81,11v0a2.91,2.91,0,0,1,.26-1.25A2.73,2.73,0,0,1,82,8.75,2.83,2.83,0,0,1,83,8.18,4.23,4.23,0,0,1,84.35,8a6,6,0,0,1,1.79.28,6.35,6.35,0,0,1,1.66.79l-1,1.81a7.63,7.63,0,0,0-1.34-.63A3.43,3.43,0,0,0,84.3,10a1.19,1.19,0,0,0-.72.19.54.54,0,0,0-.24.45v0a.44.44,0,0,0,.15.33,1.8,1.8,0,0,0,.42.28c.17.08.37.17.59.25l.72.24c.32.1.65.23,1,.37a3.74,3.74,0,0,1,.89.53,2.5,2.5,0,0,1,.66.75A2.2,2.2,0,0,1,88,14.52v0A3,3,0,0,1,87.74,15.89Z"/><path d="M95.3,17.36v-1a3.55,3.55,0,0,1-1.16.86,3.82,3.82,0,0,1-1.63.32,4.18,4.18,0,0,1-1.24-.18,3.18,3.18,0,0,1-1-.55,2.64,2.64,0,0,1-.68-.89,2.87,2.87,0,0,1-.25-1.21v0a2.91,2.91,0,0,1,.28-1.31,2.45,2.45,0,0,1,.77-.92,3.33,3.33,0,0,1,1.17-.54,5.9,5.9,0,0,1,1.51-.18,6.37,6.37,0,0,1,1.23.1,7,7,0,0,1,1,.28V12a1.59,1.59,0,0,0-.49-1.26,2.28,2.28,0,0,0-1.49-.43,6.51,6.51,0,0,0-1.33.13,9.78,9.78,0,0,0-1.22.37l-.65-2a11.27,11.27,0,0,1,1.58-.53,8.24,8.24,0,0,1,2-.21,4.13,4.13,0,0,1,3.14,1.05,4.15,4.15,0,0,1,1,2.93v5.36Zm0-3.72a4.09,4.09,0,0,0-.77-.25,4.29,4.29,0,0,0-.9-.09,2.4,2.4,0,0,0-1.33.32,1.09,1.09,0,0,0-.48,1v0a1,1,0,0,0,.39.82,1.69,1.69,0,0,0,1,.3,2.3,2.3,0,0,0,1.49-.45,1.44,1.44,0,0,0,.56-1.17Z"/><path d="M111.57,17.36V12.22a2.16,2.16,0,0,0-.4-1.4,1.41,1.41,0,0,0-1.14-.47,1.49,1.49,0,0,0-1.16.47,2.05,2.05,0,0,0-.42,1.4v5.14h-2.62V12.22a2.11,2.11,0,0,0-.4-1.4,1.41,1.41,0,0,0-1.14-.47,1.49,1.49,0,0,0-1.16.47,2.05,2.05,0,0,0-.42,1.4v5.14h-2.62V8.13h2.62V9.45a5.27,5.27,0,0,1,.49-.57,3.29,3.29,0,0,1,.59-.47,2.92,2.92,0,0,1,.74-.33,2.84,2.84,0,0,1,.9-.13,3.06,3.06,0,0,1,1.58.39,2.51,2.51,0,0,1,1,1.09,4.2,4.2,0,0,1,1.35-1.1A3.66,3.66,0,0,1,111.07,8a3,3,0,0,1,2.29.87,3.5,3.5,0,0,1,.83,2.53v6Z"/><path d="M125.81,14.8a4.34,4.34,0,0,1-.93,1.5,3.82,3.82,0,0,1-1.33.93,4.33,4.33,0,0,1-1.59.31,3.33,3.33,0,0,1-1.73-.41,4.77,4.77,0,0,1-1.15-1v1.19h-2.62V4.78h2.62V9.44a4.22,4.22,0,0,1,1.16-1.07A3.25,3.25,0,0,1,122,8a4.26,4.26,0,0,1,1.57.31,4,4,0,0,1,1.34.93,4.36,4.36,0,0,1,.94,1.5,5.39,5.39,0,0,1,.35,2v0A5.39,5.39,0,0,1,125.81,14.8Zm-2.26-2.07a3,3,0,0,0-.19-1.05,2.49,2.49,0,0,0-.49-.82,2.12,2.12,0,0,0-3.16,0,2.65,2.65,0,0,0-.48.82,3,3,0,0,0-.18,1.05v0a3,3,0,0,0,.18,1.05,2.65,2.65,0,0,0,.48.82,2.12,2.12,0,0,0,3.16,0,2.54,2.54,0,0,0,.49-.81,2.9,2.9,0,0,0,.19-1.06Z"/><path d="M128.22,17.36V4.78h2.62V17.36Z"/><path d="M141.91,13.33q0,.13,0,.33h-6.43a2.19,2.19,0,0,0,.79,1.35,2.31,2.31,0,0,0,1.47.46,2.87,2.87,0,0,0,1.17-.23,4,4,0,0,0,1.07-.72l1.5,1.33a4.5,4.5,0,0,1-1.58,1.26,4.84,4.84,0,0,1-2.19.46,5.24,5.24,0,0,1-1.92-.34,4.34,4.34,0,0,1-1.54-1,4.46,4.46,0,0,1-1-1.5,5,5,0,0,1-.36-1.94v0a5.07,5.07,0,0,1,.34-1.86,4.62,4.62,0,0,1,6.23-2.53,3.92,3.92,0,0,1,1.4,1.11,4.52,4.52,0,0,1,.83,1.6,6.59,6.59,0,0,1,.27,1.89v0C141.92,13.13,141.91,13.24,141.91,13.33Zm-3.16-2.73a1.93,1.93,0,0,0-2.67,0,2.65,2.65,0,0,0-.66,1.43h4A2.55,2.55,0,0,0,138.75,10.6Z"/><polygon points="113.35 25.71 115.29 22.66 117.55 23.64 115.34 25.71 113.35 25.71"/><path d="M58.64,36V23.9h9.09v2.36H61.26v2.45H67v2.36H61.26V33.6h6.55V36Z"/><path d="M76.42,34.49a2.5,2.5,0,0,1-.75.92,3.38,3.38,0,0,1-1.13.54,5.11,5.11,0,0,1-1.38.18,6.5,6.5,0,0,1-2-.33,6.58,6.58,0,0,1-2-1.06L70.31,33a6.43,6.43,0,0,0,1.51.82,4,4,0,0,0,1.4.28,1.45,1.45,0,0,0,.84-.19.58.58,0,0,0,.27-.5v0a.5.5,0,0,0-.16-.36,1.21,1.21,0,0,0-.42-.26,5.31,5.31,0,0,0-.61-.22l-.73-.22c-.32-.1-.64-.21-1-.34a3.58,3.58,0,0,1-.89-.52,2.44,2.44,0,0,1-.64-.78,2.34,2.34,0,0,1-.25-1.14v0a2.91,2.91,0,0,1,.26-1.25,2.77,2.77,0,0,1,.73-.93,3,3,0,0,1,1.07-.56A4.23,4.23,0,0,1,73,26.59a5.91,5.91,0,0,1,1.79.28,6.66,6.66,0,0,1,1.66.78l-1,1.81a8.33,8.33,0,0,0-1.34-.62A3.43,3.43,0,0,0,73,28.6a1.19,1.19,0,0,0-.72.18.56.56,0,0,0-.24.46v0a.46.46,0,0,0,.15.33,1.8,1.8,0,0,0,.42.28c.17.08.37.17.59.25l.72.24c.32.1.65.23,1,.37a4.41,4.41,0,0,1,.9.52,2.65,2.65,0,0,1,.65.76,2.17,2.17,0,0,1,.26,1.09v0A3.08,3.08,0,0,1,76.42,34.49Z"/><path d="M82.84,36a4,4,0,0,1-1.15.15,4.61,4.61,0,0,1-1.1-.13,2,2,0,0,1-.84-.46,2.12,2.12,0,0,1-.55-.85,3.67,3.67,0,0,1-.2-1.34V29H77.89V26.72H79V24.36h2.62v2.36h2.17V29H81.62v3.95q0,.9.84.9a2.7,2.7,0,0,0,1.3-.33v2.1A4.24,4.24,0,0,1,82.84,36Z"/><path d="M91.15,29.29a2.73,2.73,0,0,0-2.06.79,3.51,3.51,0,0,0-.75,2.47V36H85.72V26.72h2.62v1.87a3.77,3.77,0,0,1,1.09-1.52,2.63,2.63,0,0,1,1.86-.52v2.74Z"/><path d="M98.33,36V35a3.65,3.65,0,0,1-1.15.86,3.84,3.84,0,0,1-1.64.31A4.16,4.16,0,0,1,94.31,36a3,3,0,0,1-1-.54,2.61,2.61,0,0,1-.68-.89,2.73,2.73,0,0,1-.25-1.21v0A2.84,2.84,0,0,1,92.65,32a2.58,2.58,0,0,1,.76-.91,3.46,3.46,0,0,1,1.18-.54,5.82,5.82,0,0,1,1.5-.18,6.41,6.41,0,0,1,1.24.1,7,7,0,0,1,1,.28v-.16a1.56,1.56,0,0,0-.5-1.26,2.23,2.23,0,0,0-1.48-.43A6,6,0,0,0,95,29a9.66,9.66,0,0,0-1.21.37l-.66-2a10.59,10.59,0,0,1,1.59-.53,8.24,8.24,0,0,1,2-.21,4.13,4.13,0,0,1,3.14,1.05,4.15,4.15,0,0,1,1,2.93V36Zm.06-3.72a4.09,4.09,0,0,0-.77-.25,4.28,4.28,0,0,0-.9-.1,2.31,2.31,0,0,0-1.33.33,1.09,1.09,0,0,0-.48,1v0a1,1,0,0,0,.39.83,1.69,1.69,0,0,0,1,.29,2.32,2.32,0,0,0,1.49-.44,1.45,1.45,0,0,0,.56-1.18Z"/><path d="M107.4,36a4,4,0,0,1-1.15.15,4.61,4.61,0,0,1-1.1-.13,1.92,1.92,0,0,1-.84-.46,2.12,2.12,0,0,1-.55-.85,3.67,3.67,0,0,1-.2-1.34V29h-1.11V26.72h1.11V24.36h2.62v2.36h2.17V29h-2.17v3.95q0,.9.84.9a2.63,2.63,0,0,0,1.29-.33v2.1A4.16,4.16,0,0,1,107.4,36Z"/><path d="M118.63,29.68a4.69,4.69,0,0,0-.83-1.6A3.92,3.92,0,0,0,116.4,27a4.47,4.47,0,0,0-2-.42,4.51,4.51,0,0,0-1.86.38,4.35,4.35,0,0,0-1.43,1,4.42,4.42,0,0,0-.94,1.53,5,5,0,0,0-.34,1.86v0a5,5,0,0,0,.36,1.94,4.5,4.5,0,0,0,1,1.51,4.37,4.37,0,0,0,1.53,1,5.34,5.34,0,0,0,1.93.35,4.83,4.83,0,0,0,2.18-.46,4.54,4.54,0,0,0,1.59-1.26l-1.5-1.33a4,4,0,0,1-1.07.72,2.87,2.87,0,0,1-1.17.23,2.35,2.35,0,0,1-1.47-.46,2.21,2.21,0,0,1-.79-1.35h6.43q0-.19,0-.33c0-.09,0-.2,0-.33v0A6.54,6.54,0,0,0,118.63,29.68Zm-6.23.94a2.61,2.61,0,0,1,.66-1.43,1.76,1.76,0,0,1,1.34-.54,1.71,1.71,0,0,1,1.32.55,2.48,2.48,0,0,1,.62,1.42Z"/><path d="M129.81,36.11a3.57,3.57,0,0,1-1,1.51,4.08,4.08,0,0,1-1.61.86,8.49,8.49,0,0,1-2.26.27,9,9,0,0,1-2.17-.25,7.77,7.77,0,0,1-1.91-.71l.89-2a6.81,6.81,0,0,0,1.46.62,5.64,5.64,0,0,0,1.66.23,2.71,2.71,0,0,0,2-.64,2.52,2.52,0,0,0,.65-1.88V33.7a4.71,4.71,0,0,1-1.28,1.11,3.5,3.5,0,0,1-1.74.39,4.26,4.26,0,0,1-1.55-.28,3.88,3.88,0,0,1-2.21-2.19,4.59,4.59,0,0,1-.34-1.83v0a4.56,4.56,0,0,1,.34-1.83,4.13,4.13,0,0,1,.92-1.36,3.75,3.75,0,0,1,1.31-.83,4.2,4.2,0,0,1,1.53-.29,3.45,3.45,0,0,1,1.76.4,4.83,4.83,0,0,1,1.22,1V26.72h2.62v7.16A6.69,6.69,0,0,1,129.81,36.11Zm-2.26-5.25a2.2,2.2,0,0,0-.17-.86,2.09,2.09,0,0,0-1.19-1.12,2.44,2.44,0,0,0-.9-.16,2.35,2.35,0,0,0-.89.16,2,2,0,0,0-.7.44,2,2,0,0,0-.48.68,2.2,2.2,0,0,0-.17.86v0a2,2,0,0,0,.64,1.55,2.27,2.27,0,0,0,1.6.58,2.66,2.66,0,0,0,.9-.15,2.24,2.24,0,0,0,.71-.44,2.2,2.2,0,0,0,.48-.68,2.24,2.24,0,0,0,.17-.86Z"/><path d="M132.53,25.71V23.38h2.76v2.33ZM132.6,36V26.72h2.62V36Z"/><path d="M144.28,35.69a4.57,4.57,0,0,1-2.24.48,4.87,4.87,0,0,1-1.92-.38,4.64,4.64,0,0,1-1.53-1,4.71,4.71,0,0,1-1-1.51,4.64,4.64,0,0,1-.37-1.86v0a4.74,4.74,0,0,1,2.89-4.43,5.53,5.53,0,0,1,4.13,0,4.75,4.75,0,0,1,1.51,1.13l-1.6,1.73a4.1,4.1,0,0,0-.92-.74,2.27,2.27,0,0,0-1.18-.28,2.09,2.09,0,0,0-.91.2,2.16,2.16,0,0,0-.7.54,2.56,2.56,0,0,0-.47.8,2.88,2.88,0,0,0-.16,1v0a3,3,0,0,0,.16,1,2.35,2.35,0,0,0,.48.81,2.12,2.12,0,0,0,.74.54,2.29,2.29,0,0,0,1,.2,2.35,2.35,0,0,0,1.15-.27,4.36,4.36,0,0,0,1-.71l1.54,1.55A5.8,5.8,0,0,1,144.28,35.69Z"/><path d="M156.69,33.23a4.75,4.75,0,0,1-1.05,1.53,5.07,5.07,0,0,1-1.59,1,5.47,5.47,0,0,1-4,0,4.84,4.84,0,0,1-1.57-1,4.75,4.75,0,0,1-1.05-1.52,4.66,4.66,0,0,1-.38-1.87v0a4.66,4.66,0,0,1,.38-1.87,4.87,4.87,0,0,1,2.64-2.56,5.24,5.24,0,0,1,2-.38,5.36,5.36,0,0,1,2,.37,4.89,4.89,0,0,1,1.58,1,4.73,4.73,0,0,1,1,1.52,4.66,4.66,0,0,1,.38,1.87v0A4.66,4.66,0,0,1,156.69,33.23Zm-2.21-1.87a2.61,2.61,0,0,0-.17-1A2.46,2.46,0,0,0,153,29a2.31,2.31,0,0,0-1-.21,2.44,2.44,0,0,0-1,.2,2.07,2.07,0,0,0-.75.54,2.41,2.41,0,0,0-.48.8,2.88,2.88,0,0,0-.16,1v0a2.78,2.78,0,0,0,.17,1,2.4,2.4,0,0,0,.5.81,2.36,2.36,0,0,0,1.76.77,2.49,2.49,0,0,0,1-.2,2.25,2.25,0,0,0,.75-.54,2.56,2.56,0,0,0,.47-.8,2.88,2.88,0,0,0,.16-1Z"/><polygon points="47.8 20.31 23.48 20.31 19.99 14.28 19.57 13.56 19.14 12.82 18.42 11.58 16.08 7.51 15.66 6.79 15.23 6.03 14.51 4.79 11.74 0 36.06 0 39.56 6.03 21.93 6.03 22.8 7.51 40.41 7.51 43.47 12.82 25.86 12.82 26.7 14.28 44.31 14.28 47.8 20.31"/><polygon points="26.72 27.82 25.87 29.28 43.5 29.28 40.42 34.59 22.81 34.59 21.95 36.06 39.58 36.06 36.08 42.1 11.76 42.1 14.51 37.34 15.25 36.06 15.66 35.34 16.1 34.59 18.42 30.55 19.18 29.28 19.57 28.57 20 27.82 23.5 21.77 47.82 21.77 44.33 27.82 26.72 27.82"/><polygon points="17.27 13.58 16.87 14.28 13.38 20.31 7.85 20.31 11.34 14.28 12.17 12.82 14.51 8.79 16.84 12.82 17.27 13.58"/><polygon points="13.34 6.79 12.93 7.51 9.87 12.82 9.02 14.28 5.53 20.31 0.02 20.31 3.51 14.28 4.34 12.82 7.4 7.51 8.27 6.03 10.59 2 12.91 6.03 13.34 6.79"/><polygon points="13.34 35.34 12.93 36.06 10.59 40.13 8.25 36.06 7.38 34.59 4.32 29.28 3.48 27.82 0 21.77 5.51 21.77 9 27.82 9.83 29.28 12.91 34.59 13.34 35.34"/><polygon points="17.27 28.56 16.85 29.28 14.51 33.35 12.15 29.28 11.31 27.82 7.83 21.77 13.36 21.77 16.84 27.82 17.27 28.56"/><polygon points="21.16 20.31 15.68 20.31 18.42 15.57 21.16 20.31"/><polygon points="21.19 21.77 18.42 26.56 15.66 21.77 21.19 21.77"/></g></g></svg>