<svg xmlns="http://www.w3.org/2000/svg" viewBox="0 0 86.74 70.1"><title>arnter-partner-interlight</title><g id="Capa_2" data-name="Capa 2"><g id="Capa_1-2" data-name="Capa 1"><path d="M43.37,70.1A35.27,35.27,0,0,1,11.74,50.19,1.78,1.78,0,0,1,15,48.65a31.5,31.5,0,0,0,56.82,0A1.78,1.78,0,1,1,75,50.19,35.27,35.27,0,0,1,43.37,70.1Z"/><path d="M73.39,22.47a1.79,1.79,0,0,1-1.61-1,31.5,31.5,0,0,0-56.82,0,1.78,1.78,0,1,1-3.22-1.54,35.07,35.07,0,0,1,63.26,0,1.79,1.79,0,0,1-.84,2.38A1.91,1.91,0,0,1,73.39,22.47Z"/><path d="M3.31,25.5a1.56,1.56,0,0,1-1.64,1.59A1.58,1.58,0,0,1,0,25.5a1.63,1.63,0,0,1,1.67-1.62A1.62,1.62,0,0,1,3.31,25.5ZM.37,41.56V29.21H3V41.56Z"/><path d="M16.42,34.09v7.47H13.8v-7c0-2-1.17-3.36-2.94-3.36-2.22,0-3.69,1.5-3.69,4.61v5.7H4.58V29.21H7.17v1.52a5.34,5.34,0,0,1,4.29-1.87C14.42,28.86,16.42,31,16.42,34.09Z"/><path d="M24.87,41a5.59,5.59,0,0,1-3.07.94c-2.66,0-4.45-1.49-4.45-4.56v-12h2.59v3.84h4.23v2.14H19.94v5.83c0,1.54.82,2.29,2,2.29a4.08,4.08,0,0,0,2.09-.67Z"/><path d="M36.54,36h-10a3.84,3.84,0,0,0,3.74,3.66,3.69,3.69,0,0,0,3.63-2.14l2.32.5a6,6,0,0,1-5.95,3.88A6.28,6.28,0,0,1,24,35.41a6.32,6.32,0,0,1,6.41-6.55,6.18,6.18,0,0,1,6.17,6.25ZM26.6,34.17h7.28a3.45,3.45,0,0,0-3.51-3A3.78,3.78,0,0,0,26.6,34.17Z"/><path d="M45.09,29.16l-.18,2.49a5.54,5.54,0,0,0-.72,0c-3.14,0-4.68,2.2-4.68,5.58v4.36H36.92V29.21h2.59v2.64a5.34,5.34,0,0,1,4.71-2.79A2.68,2.68,0,0,1,45.09,29.16Z"/><path d="M45.93,41.35V23.64h2.56V41.35Z"/><path d="M52.66,25.48a1.64,1.64,0,0,1-3.27,0,1.64,1.64,0,0,1,3.27,0Z"/><rect x="49.76" y="29.15" width="2.56" height="12.2"/><path d="M78.38,34v7.38H75.8V34.49c0-2-1.16-3.32-2.91-3.32-2.18,0-3.63,1.47-3.63,4.54v5.64H66.7V23.64h2.56v7a5.26,5.26,0,0,1,4.22-1.85C76.41,28.8,78.38,30.92,78.38,34Z"/><path d="M86.74,40.76a5.5,5.5,0,0,1-3,.93c-2.64,0-4.41-1.47-4.41-4.5V31.26h0V29.15h0V25.36h2.56v3.79h4.18v2.11H81.87V37c0,1.52.81,2.26,2,2.26A4,4,0,0,0,86,38.62Z"/><path d="M59.19,46.46a7.64,7.64,0,0,1-6.32-3.34l1.83-1.25h0a5.44,5.44,0,0,0,9,0h0l1.83,1.26A7.66,7.66,0,0,1,59.19,46.46Z"/><path d="M59.47,29.15A5.88,5.88,0,1,0,65.34,35,5.88,5.88,0,0,0,59.47,29.15Zm0,9.45A3.58,3.58,0,1,1,63,35,3.57,3.57,0,0,1,59.47,38.6Z"/></g></g></svg>