<svg xmlns="http://www.w3.org/2000/svg" viewBox="0 0 87.13 71.24"><defs><style>.cls-1{fill-rule:evenodd;}</style></defs><title>arnter-partner-heineken</title><g id="Capa_2" data-name="Capa 2"><g id="Capa_1-2" data-name="Capa 1"><path d="M43.56,0A22.58,22.58,0,1,0,66.14,22.58,22.57,22.57,0,0,0,43.56,0Zm0,44.07a21.5,21.5,0,1,1,21.5-21.49A21.5,21.5,0,0,1,43.56,44.07Z"/><path d="M42.53,2.35h0Z"/><path d="M63.41,18.91c-1.68-4.57-7.92-3.67-9.38-3.6-1.66.07-2.52.2-2.52.2a1.16,1.16,0,0,0-1.09.71.78.78,0,0,0,.65,1c1.54.27,1-1,1-1,1.19-.31,1.19.74,1.19.74.08,1.46-1.74,1.64-1.74,1.64-2.75.12-2.71-2.17-2.71-2.17,0-3,3.23-2.55,3.23-2.55.88.11,2.08.15,2.08.15,1.76.12,1.29-1.64,1.29-1.64,2.69-1.47,5.12.1,6.18,1a20,20,0,0,0-3-4.43C54,6.5,48.28,11.43,48.28,11.43c1.5-4.07,5.72-5.13,7-5.36a20.14,20.14,0,0,0-4.2-2.31C48.81,4.19,46.79,7,46.79,7A8.57,8.57,0,0,1,48.68,3a20.13,20.13,0,0,0-5.12-.66l-1,0c2.13,1.78,1.95,7.06,1.95,7.06V20.19H43.8v2.49h.59a5.25,5.25,0,0,1,.88,2.8h-.05a6.17,6.17,0,0,1-.5,1c-.17.66.63,1.16.63,1.16A8.19,8.19,0,0,1,46.88,31c0,.9-1.79,1.06-1.79,1.06l.37,1-2,.82h1.62a6,6,0,0,0,.43.71c.28.43-.64,1.27-.64,1.27a2.73,2.73,0,0,1,.21,2.2c-.28,1.43-4.18.52-4.18.52a1.12,1.12,0,0,0-1.4,1,6.87,6.87,0,0,0,.22,2.67,20.47,20.47,0,0,0,3.79.36,19.93,19.93,0,0,0,6.58-1.11c0-.48-.06-1.5-.12-2.19-.1-.93.57-1.11.57-1.11a19.24,19.24,0,0,0,3.9.31c3.6-.35,1.91-3.13,1.91-3.13a1.23,1.23,0,0,0,.74-1.26c-.09-.94-1.93-.68-1.93-.68l-.1-.2a14.32,14.32,0,0,0,2-.54c.15-.15-.1-1.22-.1-1.22a2.7,2.7,0,0,0,1.67-.67c.43-.47-.28-1.81-1-2.79a4.31,4.31,0,0,0-1.45-1.34l0-.47c-.32.29-1.14.08-1.14.08l.34.93-.64-.24-.16,0a4.32,4.32,0,0,1-2.6-.67l-.91-.06a16.6,16.6,0,0,1,5.59-.75c.23-.8-1.24-3.17-1.24-3.17l-1.82.13c.34-1.47,3.82-.88,3.82-.88,5-.08,5.58,2,5.58,2a2.92,2.92,0,0,0,.57-1.14v-.07A18.62,18.62,0,0,0,63.41,18.91Z"/><path d="M42.83,25.65a4.17,4.17,0,0,0-2.23.89,3.91,3.91,0,0,0,2.29.74,4,4,0,0,1,1.1-.17l-.48-.65,1.23-.06a.41.41,0,0,1,0,.07,6.17,6.17,0,0,0,.5-1C45,25.48,44,25.54,42.83,25.65Z"/><path d="M36.72,14.79A11.75,11.75,0,0,0,38.44,13c-1.32-5.88-5.31-6.67-6.78-6.76a20.46,20.46,0,0,0-4.45,4.46A9,9,0,0,1,36.72,14.79Z"/><path d="M39.78,10.61c1.58-3,.06-7.29-.17-7.9a20.81,20.81,0,0,0-4.33,1.38C39.17,5.87,39.78,10.61,39.78,10.61Z"/><path d="M24.84,14.92a20.9,20.9,0,0,0-1.37,5.55c7.51-.95,11.31-4.09,11.31-4.09C31.62,12.37,26.65,14.11,24.84,14.92Z"/><path d="M31.91,24.89c-1.9-1-.78-3.21-.78-3.21-2,1-6.18.94-7.76.89a20.27,20.27,0,0,0,1.72,8.1A12.53,12.53,0,0,1,31.91,24.89Z"/><path d="M34.28,20.76c-1.32.2-1.57.87-1.57.87a1.26,1.26,0,0,0,.88,1.92c1.11.24.8-1,.8-1a.91.91,0,0,1,1.24.65c.3,1-.72,1.76-1.63,2a16.74,16.74,0,0,0-3.12,1.68A11.93,11.93,0,0,0,27,34.09a20.39,20.39,0,0,0,6.3,5.82c-1.86-8.07,6.12-6.38,6.12-6.38a2.11,2.11,0,0,0-1.39-2.86c-1.92-1-1.87-2.25-1.87-2.25-.3-3.21,4-5.76,4-5.76H43.8V20.17C41.45,20.17,35.44,20.58,34.28,20.76Z"/><path d="M42.83,25.65a4.17,4.17,0,0,0-2.23.89,3.91,3.91,0,0,0,2.29.74,4,4,0,0,1,1.1-.17l-.48-.65,1.23-.06a.41.41,0,0,1,0,.07,6.17,6.17,0,0,0,.5-1C45,25.48,44,25.54,42.83,25.65Z"/><path class="cls-1" d="M35.94,49.77V60.4h2.28V54.51c.48.35,3.44,5.68,4,5.89H44c.39-.07.58-.39.57-.95v-10H42.21a53.85,53.85,0,0,0,.09,5.73c-.25-.1-.16,0-.56-.67l-1.56-2.42c-1.48-2.34-1.29-2.61-4-2.61-.22,0-.29.07-.29.29Z"/><path class="cls-1" d="M78.14,60.37H80.4l-.08-5.89c.55.37,2.52,4.17,4.08,5.89h1.69c.43-.06.59-.26.6-.85,0-1.28-.2-8.72,0-9.15a.55.55,0,0,1,.43-.43l0-.49H84.4v5.7c-.26-.19-3-4.63-3.09-4.7a2,2,0,0,0-1.65-1H78.14V60.37Z"/><path class="cls-1" d="M57.11,49.77V59.83c0,.35.36.5.85.57h2.19V55.84c.4.11.16,0,.61.72l1.67,2.61c.63.89,1,1.16,1.76,1.23H66.8c-.08-.34-3.89-6.14-4.09-6.46a9.63,9.63,0,0,0,.95-1c.32-.42.68-.66,1-1.08s.28-.32.48-.56l1.36-1.78c-3.21,0-2.59-.41-5.06,2.54a9.1,9.1,0,0,1-1.3,1.26v-3.8H57.4c-.22,0-.29.07-.29.29Z"/><path class="cls-1" d="M20.19,59.45c0,.7.3.93,1,.95h5.51c.37,0,.58-.23.66-.67V58.41H23.79c-.32,0-.53-.1-.57-.38V55.75h3.33V53.66H23.22V51.57H27.4c0-1.11.24-1.88-.57-2.09H20.19v10Z"/><path class="cls-1" d="M30.06,59.92c0,.31.34.48.66.48H33V49.48H30.06V59.92Z"/><path class="cls-1" d="M47.52,59.45c0,.7.31.93,1,.95h5.5c.37,0,.59-.23.67-.67V58.41H51.13c-.33,0-.53-.1-.57-.38V55.75h3.32V53.66H50.56V51.57h4.18c0-1.11.24-1.88-.57-2.09H47.52v10Z"/><path class="cls-1" d="M68.28,59.45c0,.7.3.93,1,.95h5.51c.36,0,.58-.23.66-.67V58.41H71.88c-.32,0-.53-.1-.57-.38V55.75h3.33V53.66H71.31V51.57h4.18c0-1.11.24-1.88-.57-2.09H68.28v10Z"/><path class="cls-1" d="M8.74,50.5l0,9.74h3V55.52h2.58v4.72h2.94V49.45H14.23v3.89a.24.24,0,0,1-.29.29H12a.25.25,0,0,1-.29-.29V49.45H8.25c-.05.73.51.41.49,1Z"/><path class="cls-1" d="M4.14,47.46,6.22,49,5.4,51.85C4.59,52.43,3.76,53,3,53.58c-.3.09-.3-.16-.14-.59L4.2,48.63.08,45.56c-.14-.11-.12-.29.26-.29l5,.06Q6.11,43,6.86,40.68c.11-.29.3-.25.38,0l1.52,4.74H13.9c.14,0,.17.11.07.19l-2.51,1.8H8.62L7.84,45c0-.14-.14-.14-.19,0l-.82,2.38H4.16c-.12,0-.12,0,0,.1Z"/><path d="M31.05,71.15,29.61,66h0c.05,1,.08,1.74.08,2.09v3H28.53V64.63h1.72l1.41,5h0l1.5-5h1.71v6.52H33.72V67.56c0-.19,0-.7.06-1.52h0l-1.53,5.11Z"/><path d="M39.61,71.15H36.18V64.63h3.43v1.13H37.45v1.43h2v1.14h-2V70h2.16ZM37.16,64.1V64a11.67,11.67,0,0,0,1-1.34h1.39v.09a8.6,8.6,0,0,1-.72.69c-.34.31-.61.54-.8.68Z"/><path d="M45.46,71.15H44l-1.38-2.46-1.39,2.46H39.9l2-3.36L40,64.63h1.39L42.7,67,44,64.63h1.36l-1.87,3.23Z"/><path d="M46,71.15V64.63h1.26v6.52Z"/><path d="M51.09,65.69a1.26,1.26,0,0,0-1.11.58,3,3,0,0,0-.39,1.64c0,1.45.5,2.18,1.5,2.18a4.35,4.35,0,0,0,1.52-.34v1.16a4,4,0,0,1-1.64.33,2.38,2.38,0,0,1-2-.86,3.9,3.9,0,0,1-.69-2.48,4.45,4.45,0,0,1,.34-1.78,2.65,2.65,0,0,1,1-1.18,2.73,2.73,0,0,1,1.49-.41,3.77,3.77,0,0,1,1.74.46l-.41,1.13a5.79,5.79,0,0,0-.67-.31A1.92,1.92,0,0,0,51.09,65.69Z"/><path d="M59.07,67.88a3.75,3.75,0,0,1-.73,2.49,2.6,2.6,0,0,1-2.1.87,2.57,2.57,0,0,1-2.1-.87,4.58,4.58,0,0,1,0-5,2.63,2.63,0,0,1,2.11-.86,2.6,2.6,0,0,1,2.1.87A3.81,3.81,0,0,1,59.07,67.88Zm-4.34,0a3,3,0,0,0,.37,1.65,1.29,1.29,0,0,0,1.14.55c1,0,1.51-.73,1.51-2.2s-.5-2.2-1.5-2.2a1.28,1.28,0,0,0-1.14.55A2.88,2.88,0,0,0,54.73,67.88Z"/></g></g></svg>