<svg xmlns="http://www.w3.org/2000/svg" viewBox="0 0 148.51 45.16"><title>arnter-partner-gewissen</title><g id="Capa_2" data-name="Capa 2"><g id="Capa_1-2" data-name="Capa 1"><path d="M22.58,0A22.58,22.58,0,1,0,45.16,22.58,22.61,22.61,0,0,0,22.58,0Zm0,42.92A20.34,20.34,0,1,1,42.92,22.58,20.36,20.36,0,0,1,22.58,42.92Z"/><path d="M37.75,12.36a1.12,1.12,0,0,0-1.86,1.25,16,16,0,0,1,0,17.93,1.13,1.13,0,0,0,.31,1.56,1.08,1.08,0,0,0,.62.19,1.12,1.12,0,0,0,.93-.49,18.3,18.3,0,0,0,0-20.44Z"/><path d="M32.91,30.35a1.06,1.06,0,0,0,.59.17,1.11,1.11,0,0,0,1-.52,14,14,0,0,0,0-14.84,1.12,1.12,0,0,0-1.9,1.19,11.74,11.74,0,0,1,0,12.46A1.11,1.11,0,0,0,32.91,30.35Z"/><path d="M34.82,34.69a13.27,13.27,0,0,0-18.36-1.76l-.22-.14a6.13,6.13,0,0,1-.58-.42A12.62,12.62,0,0,1,12.09,28a12.28,12.28,0,0,1-.54-1.3c-.08-.22-.16-.44-.23-.66l-.17-.69A12.84,12.84,0,0,1,10.91,24a4.12,4.12,0,0,1-.05-.7l0-.7a12.62,12.62,0,0,1,1.27-5.43,12.42,12.42,0,0,1,3.57-4.36,4.75,4.75,0,0,1,.58-.42l.21-.15a13.3,13.3,0,0,0,8.28,2.89,13.26,13.26,0,0,0,10.09-4.65,1.11,1.11,0,0,0-.11-1.56l0,0a18.3,18.3,0,1,0,0,27.4,1.1,1.1,0,0,0,.37-1A1.08,1.08,0,0,0,34.82,34.69ZM22.58,38.63A16.05,16.05,0,1,1,32.34,9.84a11.06,11.06,0,0,1-7.61,3,11.09,11.09,0,0,1-6.08-1.82l.13-.06.17-.07.17-.06.35-.11c.23-.07.46-.16.7-.22l.72-.16.36-.08c.12,0,.24,0,.36-.06l.74-.09a10.76,10.76,0,0,1,1.5-.07,14.23,14.23,0,0,1,3,.36,12.35,12.35,0,0,0-9.61-.39,9.2,9.2,0,0,0-1.52.67,11.2,11.2,0,0,0-1.1.64l-.67.47a2.6,2.6,0,0,0-.33.25l-.31.26a8.11,8.11,0,0,0-.62.55l-.57.59c-.1.11-.2.2-.29.31l-.25.32-.52.65-.45.7c-.14.24-.3.46-.42.72a10.29,10.29,0,0,0-.69,1.51c-.1.26-.2.52-.29.78L9,19.28a11.29,11.29,0,0,0-.31,1.64,5.69,5.69,0,0,0-.07.83l-.05.83.05.83a5.69,5.69,0,0,0,.07.83A11.29,11.29,0,0,0,9,25.88l.21.81c.09.26.2.52.3.78A10.29,10.29,0,0,0,10.21,29a6.44,6.44,0,0,0,.42.72l.45.7.51.65.26.33.28.3.58.59a8.11,8.11,0,0,0,.62.55l.31.26a2.1,2.1,0,0,0,.33.26l.67.46a12.37,12.37,0,0,0,1.11.65c.37.18.88.42,1.51.66a12.35,12.35,0,0,0,9.61-.39,14.23,14.23,0,0,1-3,.36,10.76,10.76,0,0,1-1.5-.07l-.74-.09-.36-.06-.36-.08-.72-.16c-.24-.06-.47-.15-.7-.22l-.35-.11L19,34.23l-.17-.07-.12-.06a11,11,0,0,1,13.68,1.22A16,16,0,0,1,22.58,38.63Z"/><path d="M28.9,28.5a1.1,1.1,0,0,0,.65.21,1.12,1.12,0,0,0,.91-.46,9.74,9.74,0,0,0,0-11.34,1.12,1.12,0,0,0-1.82,1.31,7.49,7.49,0,0,1,0,8.72A1.11,1.11,0,0,0,28.9,28.5Z"/><path d="M15.11,22.58a7.52,7.52,0,0,1,2.45-5.53,1.11,1.11,0,1,0-1.5-1.65,9.7,9.7,0,0,0,0,14.34,1.12,1.12,0,1,0,1.51-1.65A7.51,7.51,0,0,1,15.11,22.58Z"/><path d="M66.43,15.47H65.38a.32.32,0,0,0-.34.34v3.13a6,6,0,0,1-2.5.51,4.15,4.15,0,1,1,.06-8.3,5.19,5.19,0,0,1,2.63.65.28.28,0,0,0,.24.06.37.37,0,0,0,.21-.17l.47-.83A.32.32,0,0,0,66,10.4a6.52,6.52,0,0,0-3.52-.91,5.79,5.79,0,1,0,0,11.58A7.35,7.35,0,0,0,66.54,20a.4.4,0,0,0,.21-.39V15.81A.32.32,0,0,0,66.43,15.47Z"/><path d="M77.51,19.34h-5V16H77.3a.31.31,0,0,0,.34-.33v-.92a.31.31,0,0,0-.34-.34H72.52V11.23h5a.33.33,0,0,0,.34-.34V10a.32.32,0,0,0-.34-.34H71.09a.32.32,0,0,0-.34.34V20.59a.31.31,0,0,0,.34.33h6.42a.31.31,0,0,0,.33-.33v-.93A.31.31,0,0,0,77.51,19.34Z"/><path d="M95.49,10H94.41a.35.35,0,0,0-.37.27l-2.22,7.94L89.08,9.88a.35.35,0,0,0-.35-.25h-.68a.35.35,0,0,0-.37.26L85,18.21l-2.19-7.94a.32.32,0,0,0-.35-.27H81.29a.34.34,0,0,0-.27.11.31.31,0,0,0,0,.28l3.19,10.26a.33.33,0,0,0,.35.27h.76a.36.36,0,0,0,.37-.27l2.69-8.21,2.73,8.21a.35.35,0,0,0,.37.27h.77a.35.35,0,0,0,.36-.27l3.18-10.26h0a.32.32,0,0,0,0-.28A.27.27,0,0,0,95.49,10Z"/><path d="M100.54,9.63H99.43a.31.31,0,0,0-.33.34V20.59a.31.31,0,0,0,.33.33h1.11a.31.31,0,0,0,.33-.33V10A.31.31,0,0,0,100.54,9.63Z"/><path d="M109.11,14.27c-1.59-.42-2.34-.78-2.34-1.71s.78-1.49,2-1.49a4.17,4.17,0,0,1,2.51.7.31.31,0,0,0,.47-.1l.49-.79a.32.32,0,0,0-.08-.46,5.62,5.62,0,0,0-3.39-.93c-2.26,0-3.84,1.29-3.84,3.15,0,2.06,1.64,2.76,3.42,3.22s2.45,1,2.45,2-.81,1.65-2.12,1.65a5.2,5.2,0,0,1-3-1,.32.32,0,0,0-.26-.06.35.35,0,0,0-.2.16l-.54.86a.34.34,0,0,0,.08.48h0a6.8,6.8,0,0,0,4,1.1c2.32,0,3.89-1.35,3.89-3.36C112.64,16.4,112.21,15.08,109.11,14.27Z"/><path d="M120.09,14.27c-1.59-.42-2.35-.78-2.35-1.71s.79-1.49,2.06-1.49a4.14,4.14,0,0,1,2.5.7.32.32,0,0,0,.48-.1l.49-.79a.33.33,0,0,0-.08-.46,5.64,5.64,0,0,0-3.39-.93c-2.26,0-3.84,1.29-3.84,3.15,0,2.06,1.64,2.76,3.41,3.22s2.46,1,2.46,2-.82,1.65-2.12,1.65a5.17,5.17,0,0,1-3-1,.33.33,0,0,0-.26-.06.32.32,0,0,0-.2.16l-.54.86a.34.34,0,0,0,.08.48h0a6.84,6.84,0,0,0,4,1.1c2.33,0,3.89-1.35,3.89-3.36C123.61,16.4,123.19,15.08,120.09,14.27Z"/><path d="M134.25,19.34h-5V16H134a.31.31,0,0,0,.34-.33v-.92a.31.31,0,0,0-.34-.34h-4.78V11.23h5a.33.33,0,0,0,.34-.34V10a.32.32,0,0,0-.34-.34h-6.39a.32.32,0,0,0-.34.34V20.59a.31.31,0,0,0,.34.33h6.42a.31.31,0,0,0,.33-.33v-.93A.31.31,0,0,0,134.25,19.34Z"/><path d="M148.19,9.63H147.1a.32.32,0,0,0-.34.34v7.8L139.94,9.7a.48.48,0,0,0-.38-.18h-.51a.31.31,0,0,0-.32.34V20.59a.3.3,0,0,0,.32.33h1.1a.31.31,0,0,0,.32-.33V12.8l6.85,8.07a.5.5,0,0,0,.36.18h.51a.32.32,0,0,0,.32-.34V10A.31.31,0,0,0,148.19,9.63Z"/><path d="M58.05,36.19v-10a.15.15,0,0,1,.16-.16h.37a.15.15,0,0,1,.16.16v10a.15.15,0,0,1-.16.16h-.37A.15.15,0,0,1,58.05,36.19Z"/><path d="M62.06,34.26V30.14H60.84a.15.15,0,0,1-.16-.16v-.25a.15.15,0,0,1,.16-.16h1.22l0-2.17a.16.16,0,0,1,.16-.16h.34a.15.15,0,0,1,.16.16v2.17h2.81a.15.15,0,0,1,.16.16V30a.15.15,0,0,1-.16.16H62.74v4.1a1.5,1.5,0,0,0,1.68,1.63,2.19,2.19,0,0,0,1.29-.42.13.13,0,0,1,.22,0l.13.25A.13.13,0,0,1,66,36a2.54,2.54,0,0,1-1.68.54A2.13,2.13,0,0,1,62.06,34.26Z"/><path d="M66.89,28.12,66.8,28c-.07-.07-.07-.13,0-.22a1.9,1.9,0,0,0,.56-1,.32.32,0,0,1-.16,0,.58.58,0,0,1-.53-.62.59.59,0,0,1,.6-.62.67.67,0,0,1,.68.76,2.28,2.28,0,0,1-.86,1.8C67,28.21,67,28.19,66.89,28.12Z"/><path d="M69,35.79c-.11,0-.11-.12-.06-.2l.19-.3c0-.09.13-.1.22,0a3.63,3.63,0,0,0,2.1.62c1.13,0,1.86-.49,1.86-1.27s-.4-1.12-1.85-1.44-2.33-.86-2.33-1.92,1-1.8,2.36-1.8a4.06,4.06,0,0,1,2.17.57.15.15,0,0,1,.06.23l-.16.28a.16.16,0,0,1-.22,0,3.51,3.51,0,0,0-1.89-.52c-1,0-1.63.43-1.63,1.17s.48,1,1.89,1.31c1.76.42,2.27,1,2.27,2.07s-1,1.89-2.53,1.89A4.45,4.45,0,0,1,69,35.79Z"/><path d="M80.14,34.26V30.14H78.91a.15.15,0,0,1-.16-.16v-.25a.15.15,0,0,1,.16-.16h1.23V27.4a.16.16,0,0,1,.16-.16h.34a.14.14,0,0,1,.16.16v2.17h2.81a.15.15,0,0,1,.16.16V30a.15.15,0,0,1-.16.16H80.81v4.1a1.5,1.5,0,0,0,1.69,1.63,2.18,2.18,0,0,0,1.28-.42.13.13,0,0,1,.22,0l.13.25a.13.13,0,0,1-.06.2,2.54,2.54,0,0,1-1.68.54A2.12,2.12,0,0,1,80.14,34.26Z"/><path d="M91.73,32.59v3.6a.15.15,0,0,1-.16.16H91.2a.14.14,0,0,1-.15-.16V32.66a2.33,2.33,0,0,0-2.34-2.59,2.38,2.38,0,0,0-2.42,2.14l0,4a.14.14,0,0,1-.15.16h-.38a.14.14,0,0,1-.15-.16V26a.14.14,0,0,1,.15-.16h.36a.15.15,0,0,1,.16.16v5a2.69,2.69,0,0,1,2.55-1.52A2.87,2.87,0,0,1,91.73,32.59Z"/><path d="M100.13,33a.17.17,0,0,1-.18.17H94.36a2.81,2.81,0,0,0,2.92,2.71,3.15,3.15,0,0,0,2-.66c.09-.08.18-.08.22,0l.16.25a.16.16,0,0,1,0,.24,3.89,3.89,0,0,1-2.42.77A3.41,3.41,0,0,1,93.68,33a3.34,3.34,0,0,1,3.38-3.53,3,3,0,0,1,3.07,3.29Zm-5.76-.42h5.09V32.5A2.38,2.38,0,0,0,97.07,30,2.67,2.67,0,0,0,94.37,32.58Z"/><path d="M106.47,36.19v-6h-1.15a.15.15,0,0,1-.16-.16v-.25a.14.14,0,0,1,.16-.16h1.15V28.14a2.16,2.16,0,0,1,2.21-2.42,2.24,2.24,0,0,1,1.46.45.14.14,0,0,1,0,.21l-.15.25a.14.14,0,0,1-.22.05,1.84,1.84,0,0,0-1.06-.31c-.93,0-1.59.57-1.59,1.78v1.42h2.21a.14.14,0,0,1,.15.16V30a.14.14,0,0,1-.15.16h-2.21v6a.15.15,0,0,1-.17.16h-.35A.15.15,0,0,1,106.47,36.19Z"/><path d="M117.22,29.73v6.46a.15.15,0,0,1-.16.16h-.28a.15.15,0,0,1-.16-.16l0-1.24a2.73,2.73,0,0,1-2.54,1.54,2.85,2.85,0,0,1-2.86-3.16v-3.6a.15.15,0,0,1,.16-.16h.37a.15.15,0,0,1,.16.16v3.5c0,1.56.86,2.61,2.25,2.59a2.36,2.36,0,0,0,2.4-2.33V29.73a.15.15,0,0,1,.16-.16h.37A.15.15,0,0,1,117.22,29.73Z"/><path d="M120.17,34.26V30.14H119a.15.15,0,0,1-.16-.16v-.25a.15.15,0,0,1,.16-.16h1.22l0-2.17a.16.16,0,0,1,.16-.16h.34a.15.15,0,0,1,.16.16v2.17h2.81a.15.15,0,0,1,.16.16V30a.15.15,0,0,1-.16.16h-2.81v4.1a1.5,1.5,0,0,0,1.68,1.63,2.19,2.19,0,0,0,1.29-.42.13.13,0,0,1,.22,0l.13.25a.13.13,0,0,1-.06.2,2.54,2.54,0,0,1-1.68.54A2.13,2.13,0,0,1,120.17,34.26Z"/><path d="M131.55,29.73v6.46a.15.15,0,0,1-.16.16h-.28a.15.15,0,0,1-.17-.16l0-1.24a2.71,2.71,0,0,1-2.53,1.54,2.85,2.85,0,0,1-2.87-3.16v-3.6a.15.15,0,0,1,.17-.16h.37a.15.15,0,0,1,.16.16v3.5c0,1.56.85,2.61,2.24,2.59a2.36,2.36,0,0,0,2.4-2.33V29.73a.15.15,0,0,1,.17-.16h.37A.15.15,0,0,1,131.55,29.73Z"/><path d="M137.67,29.64l0,.35c0,.12-.06.15-.18.14a1.54,1.54,0,0,0-.38,0,2.28,2.28,0,0,0-2.29,2.33v3.76a.15.15,0,0,1-.15.16h-.38a.14.14,0,0,1-.15-.16V29.73a.14.14,0,0,1,.15-.16h.28a.16.16,0,0,1,.17.16l0,1.4a2.42,2.42,0,0,1,2.44-1.7,2.23,2.23,0,0,1,.37,0A.15.15,0,0,1,137.67,29.64Z"/><path d="M144.71,33a.17.17,0,0,1-.18.17h-5.59a2.81,2.81,0,0,0,2.92,2.71,3.15,3.15,0,0,0,2-.66c.09-.08.18-.08.22,0l.16.25a.17.17,0,0,1,0,.24,3.91,3.91,0,0,1-2.42.77A3.42,3.42,0,0,1,138.26,33a3.34,3.34,0,0,1,3.38-3.53,3,3,0,0,1,3.07,3.29ZM139,32.58H144V32.5A2.37,2.37,0,0,0,141.65,30,2.67,2.67,0,0,0,139,32.58Z"/><path d="M146.49,35.84a.63.63,0,0,1,.64-.65.65.65,0,0,1,0,1.3A.63.63,0,0,1,146.49,35.84Z"/></g></g></svg>