<svg xmlns="http://www.w3.org/2000/svg" viewBox="0 0 149.62 37.1"><title>arnter-partner-sociall</title><g id="Capa_2" data-name="Capa 2"><g id="Capa_1-2" data-name="Capa 1"><path d="M5.64,9.66A6.28,6.28,0,0,1,4.12,8.8,2.59,2.59,0,0,1,3.3,7.74,4.18,4.18,0,0,1,3.06,6.2a3.38,3.38,0,0,1,.38-1.55A4.32,4.32,0,0,1,4.49,3.36,5.23,5.23,0,0,1,6,2.48a5.35,5.35,0,0,1,1.84-.32A4.64,4.64,0,0,1,9,2.26a2.91,2.91,0,0,1,.77.27,3.12,3.12,0,0,1,.62.4c.2.15.42.32.68.5a2.69,2.69,0,0,1,.57.54L13.7,3c-.33-.35-.68-.7-1.07-1a7.82,7.82,0,0,0-1.28-1A8.13,8.13,0,0,0,9.77.29,6.34,6.34,0,0,0,7.86,0,7.12,7.12,0,0,0,5.39.46a7.35,7.35,0,0,0-2.2,1.25,6.43,6.43,0,0,0-1.6,2A5.28,5.28,0,0,0,1,6.2a5.8,5.8,0,0,0,.46,2.51,4.58,4.58,0,0,0,1.29,1.63,8.47,8.47,0,0,0,2,1.15l1.43.58,1.61-1.61C6.93,10.17,6.22,9.9,5.64,9.66Z"/><path d="M10.76,21.31a5.32,5.32,0,0,1-1.82.84,7,7,0,0,1-2,.22c-.32,0-.64,0-.94-.05a3.79,3.79,0,0,1-1-.19,4.7,4.7,0,0,1-1-.5,7.72,7.72,0,0,1-1.24-1c-.19-.19-.54-.48-.77-.73l-2,.7a9.31,9.31,0,0,0,.66,1,8.8,8.8,0,0,0,1,1.06A7.72,7.72,0,0,0,6.92,24.5a9.52,9.52,0,0,0,3-.47,7.29,7.29,0,0,0,2.47-1.35,6.36,6.36,0,0,0,1.67-2.13,6.18,6.18,0,0,0,.62-2.82,8.45,8.45,0,0,0-.47-2.86,4.88,4.88,0,0,0-1.65-2.21,7.45,7.45,0,0,0-1-.63,11.62,11.62,0,0,0-1.06-.52l-.44-.18L8.46,13l.94.34a6.63,6.63,0,0,1,1.68.86,3.59,3.59,0,0,1,1.11,1.35,5,5,0,0,1,.4,2.2,4.19,4.19,0,0,1-.51,2.12A4.52,4.52,0,0,1,10.76,21.31Z"/><path d="M42.33,4.48,40.83,6A10.57,10.57,0,0,1,42.22,8.3a9.9,9.9,0,0,1,.8,4,10,10,0,0,1-1.39,5.13A10.27,10.27,0,0,1,38,21a10.22,10.22,0,0,1-5.14,1.38,10.05,10.05,0,0,1-2.7-.36,9.78,9.78,0,0,1-2.42-1,10.37,10.37,0,0,1-1.16-.8l-1.49,1.49a12.2,12.2,0,0,0,3,1.82,12.33,12.33,0,0,0,9.54,0A12.28,12.28,0,0,0,44.15,17a12,12,0,0,0,1-4.77,12,12,0,0,0-1-4.78A13,13,0,0,0,42.33,4.48Z"/><path d="M24.08,17.39a10.89,10.89,0,0,1-1-2.43,10.11,10.11,0,0,1-.37-2.7,10,10,0,0,1,.37-2.7,10.77,10.77,0,0,1,1-2.44,10.27,10.27,0,0,1,3.65-3.64,9.8,9.8,0,0,1,2.42-1,10.05,10.05,0,0,1,2.7-.36,9.94,9.94,0,0,1,4,.8,10.36,10.36,0,0,1,2.42,1.47l1.5-1.49A12.56,12.56,0,0,0,37.63,1a12.33,12.33,0,0,0-9.54,0,12.36,12.36,0,0,0-3.9,2.63,12.15,12.15,0,0,0-2.63,3.89,11.81,11.81,0,0,0-1,4.78,11.79,11.79,0,0,0,1,4.77,12.34,12.34,0,0,0,1.9,3.1L25,18.65A10.06,10.06,0,0,1,24.08,17.39Z"/><polygon points="81.65 0.28 79.56 0.28 79.56 10.19 81.65 8.1 81.65 0.28"/><polygon points="81.65 24.25 81.65 11.32 79.56 13.41 79.56 24.25 81.65 24.25"/><polygon points="118.92 0.28 116.83 0.28 116.83 22.46 118.92 20.36 118.92 0.28"/><polygon points="129.88 24.25 129.88 22.16 120.34 22.16 118.25 24.25 129.88 24.25"/><polygon points="138.65 0.28 136.56 0.28 136.56 22.68 138.65 20.59 138.65 0.28"/><polygon points="140.29 22.16 138.2 24.25 149.62 24.25 149.62 22.16 140.29 22.16"/><path d="M72.29,3.45h0A12.34,12.34,0,0,0,68.46.91,12.41,12.41,0,0,0,59,1,12.4,12.4,0,0,0,52.5,7.48a11.84,11.84,0,0,0-.93,3.91l2.7-2.69a10.15,10.15,0,0,1,4.39-5.22,9.14,9.14,0,0,1,1.58-.75l.07-.07,0,0c.24-.09.49-.17.74-.24a10,10,0,0,1,2.7-.36,9.8,9.8,0,0,1,3.09.48,10.33,10.33,0,0,1,1.64.69c.85.51,2.17,1.54,2.17,1.54l1.65-1.32Z"/><path d="M70.68,19.74s-1.06.83-1.89,1.36a11,11,0,0,1-1.92.84,9.89,9.89,0,0,1-3.09.48,10,10,0,0,1-2.7-.36,9.78,9.78,0,0,1-2.42-1,10.68,10.68,0,0,1-2.06-1.59A9.94,9.94,0,0,1,55,17.39,10.89,10.89,0,0,1,54,15a10,10,0,0,1-.36-2.4l-1.89,1.89A11.61,11.61,0,0,0,52.5,17,12.31,12.31,0,0,0,59,23.55a12,12,0,0,0,4.77,1,12.1,12.1,0,0,0,4.67-.9,12.73,12.73,0,0,0,1.76-.91l0,0,.15-.1a11.9,11.9,0,0,0,1.86-1.45l.08-.06Z"/><rect x="123.35" y="33.39" width="26.26" height="0.65"/><rect y="33.39" width="26.26" height="0.65"/><path d="M37.75,36.44h-3.4V33.83h2.88a.1.1,0,0,0,.11-.11v-.34a.1.1,0,0,0-.11-.11H34.34V31h3.4a.1.1,0,0,0,.11-.11v-.35a.1.1,0,0,0-.11-.11H33.82a.1.1,0,0,0-.11.11l0,6.36c0,.07,0,.1.11.1h4c.07,0,.11,0,.11-.1v-.35A.1.1,0,0,0,37.75,36.44Z"/><path d="M53.88,30.43h-.4a.14.14,0,0,0-.13.09l-2.07,5.64h-.05l-2.08-5.64a.12.12,0,0,0-.12-.09h-.4c-.09,0-.12.05-.09.13l2.31,6.35A.13.13,0,0,0,51,37h.55a.11.11,0,0,0,.12-.09L54,30.56C54,30.48,54,30.43,53.88,30.43Z"/><path d="M68.83,36.44h-3.4V33.83h2.88a.1.1,0,0,0,.11-.11v-.34a.1.1,0,0,0-.11-.11H65.43V31h3.4a.1.1,0,0,0,.11-.11v-.35a.1.1,0,0,0-.11-.11H64.91a.1.1,0,0,0-.11.11l0,6.36c0,.07,0,.1.11.1h4c.08,0,.11,0,.11-.1v-.35A.1.1,0,0,0,68.83,36.44Z"/><path d="M84.79,30.43h-.4c-.07,0-.1,0-.1.11l0,5.66-3.5-5.69a.13.13,0,0,0-.13-.08H80a.1.1,0,0,0-.11.11l0,6.36c0,.07,0,.1.11.1h.43c.08,0,.11,0,.11-.1V31.11l3.57,5.82a.12.12,0,0,0,.12.07h.61c.08,0,.11,0,.11-.1l0-6.36C84.89,30.47,84.86,30.43,84.79,30.43Z"/><path d="M100.5,30.43H95.79a.1.1,0,0,0-.11.11v.35a.1.1,0,0,0,.11.11h2l0,5.9c0,.07,0,.1.11.1h.45c.07,0,.11,0,.11-.1l0-5.9h2a.1.1,0,0,0,.11-.11v-.35A.1.1,0,0,0,100.5,30.43Z"/><path d="M113.92,33.36l-.4-.12c-1.08-.33-1.64-.61-1.64-1.28s.56-1.06,1.52-1.06a1.91,1.91,0,0,1,1.77,1,.13.13,0,0,0,.13.08h.39c.07,0,.11,0,.08-.13a2.35,2.35,0,0,0-2.32-1.51c-1.25,0-2.22.65-2.2,1.71s.73,1.38,1.94,1.77l.4.12c1.16.38,1.71.78,1.71,1.47s-.62,1.14-1.64,1.14a2,2,0,0,1-2-1.22.12.12,0,0,0-.12-.08h-.41c-.08,0-.12,0-.1.12a2.5,2.5,0,0,0,2.64,1.74c1.41,0,2.3-.68,2.3-1.79C115.93,34.41,115.32,33.8,113.92,33.36Z"/><polygon points="100.43 5.88 100.02 5.74 100.02 5.19 99.43 5.19 100.02 5.12 100.1 5.11 102.25 4.86 102.29 4.86 102.26 4.61 102.22 4.21 101.98 4.24 99.82 4.49 98.87 4.6 98.5 4.65 98.98 4.34 99.6 3.95 100.73 3.23 100.69 3.16 100.53 2.92 100.38 2.68 100 2.92 99.62 3.16 99.44 3.28 99.27 3.39 98.08 4.14 98.6 3.16 98.73 2.92 99.72 1.03 99.15 0.73 97.99 2.92 97.87 3.16 97.51 3.83 97.49 3.16 97.48 2.92 97.47 2.6 97.41 0.75 96.85 0.77 96.76 0.77 96.83 2.92 96.86 3.91 96.14 2.92 95.88 2.56 95.39 2.92 95.35 2.94 96.46 4.46 93.68 3.49 93.47 4.1 96.25 5.07 95.91 5.19 93.64 5.99 93.85 6.6 96.06 5.83 89.63 20.56 89.63 20.56 88.02 24.25 88.95 24.25 90.32 24.25 91.89 20.56 92.75 18.58 93.69 16.49 98.07 6.43 99.45 8.01 99.94 7.58 98.42 5.85 100.02 6.42 100.79 6.71 102.13 7.19 102.35 6.58 100.43 5.88"/><path d="M109.24,20.85l-1.13-2.61c-.72-1.66-1.44-3.3-2.16-4.94l2.41,1.38.33-.56-3.18-1.82v0l0-.06,3.45.2,0-.65-3.74-.22,2.44-1-.24-.6-1.84.76-.66.27h0l0,0,.66-.86,1.47-1.9-.51-.4-1,1.24-1,1.24-.23.3.09-.62.35-2.43-.65-.1L104,8.84l-.24,1.7L103,9l-.58.29.83,1.68-.78-.44-1.79-1-.32.57,2.19,1.23.35.19v0l-2.71.45.1.64,2.8-.46-1.42,1.57.48.44,1.28-1.42,1.61,3.69.92,2.09,1.53,3.49.95,2.18h2.26Z"/></g></g></svg>