<svg xmlns="http://www.w3.org/2000/svg" xmlns:xlink="http://www.w3.org/1999/xlink" viewBox="0 0 19.86 19.83"><defs><style>.cls-1{fill:url(#Degradado_sin_nombre_2);}</style><linearGradient id="Degradado_sin_nombre_2" y1="9.92" x2="19.86" y2="9.92" gradientUnits="userSpaceOnUse"><stop offset="0" stop-color="#8a6ef6"/><stop offset="1" stop-color="#502cf8"/></linearGradient></defs><title>arnter-area-prod-simple2</title><g id="Capa_2" data-name="Capa 2"><g id="Capa_1-2" data-name="Capa 1"><path class="cls-1" d="M19.78,8.53a9.94,9.94,0,1,0-11,11.23,9.76,9.76,0,0,0,3.34-.17,1.63,1.63,0,0,0,1.12-2.27,4.38,4.38,0,0,1-.34-2.56,4.34,4.34,0,0,1,3.41-3.52,4.56,4.56,0,0,1,1.56,0,1.69,1.69,0,0,0,2-1.71C19.85,9.18,19.82,8.86,19.78,8.53Zm-15.69,4A1.92,1.92,0,1,1,6,10.62,1.92,1.92,0,0,1,4.09,12.54Zm1.32-5A1.93,1.93,0,1,1,7.34,5.58,1.93,1.93,0,0,1,5.41,7.51Zm5.18-1.15a1.93,1.93,0,1,1,1.93-1.93A1.92,1.92,0,0,1,10.59,6.36Z"/></g></g></svg>