<?xml version="1.0" encoding="utf-8"?>
<!-- Generator: Adobe Illustrator 22.0.1, SVG Export Plug-In . SVG Version: 6.00 Build 0)  -->
<svg version="1.1" id="Capa_1" xmlns="http://www.w3.org/2000/svg" xmlns:xlink="http://www.w3.org/1999/xlink" x="0px" y="0px"
	 viewBox="0 0 23.2 23.2" style="enable-background:new 0 0 23.2 23.2;" xml:space="preserve">
<style type="text/css">
	.st0{fill:#FFFFFF;}
</style>
<g>
	<path class="st0" d="M19,0H4.2C1.9,0,0,1.9,0,4.2c0,0,0,0,0,0V19c0,2.3,1.9,4.2,4.2,4.2c0,0,0,0,0,0H19c2.3,0,4.2-1.9,4.2-4.2V4.2
		C23.2,1.9,21.3,0,19,0z M6.6,16.8C6.6,16.8,6.6,16.8,6.6,16.8c-0.6,0-1-0.5-1-1V13c0,0,0,0,0-0.1c0-0.6,0.4-1,1-1c0,0,0,0,0.1,0
		c0.6,0,1,0.5,0.9,1v2.8c0,0,0,0,0,0.1C7.6,16.4,7.2,16.8,6.6,16.8z M12.6,15.8C12.6,15.8,12.6,15.8,12.6,15.8c0,0.6-0.5,1.1-1.1,1
		c0,0-0.1,0-0.1,0c-0.6,0-1-0.5-0.9-1V7.4c0,0,0,0,0-0.1c0-0.6,0.5-1,1-0.9c0.6,0,1,0.4,1.1,1V15.8z M17.5,15.8c0,0,0,0.1,0,0.1
		c0,0.6-0.5,1-1,0.9c0,0-0.1,0-0.1,0c-0.6,0-1-0.5-0.9-1v-4.9c0,0,0-0.1,0-0.1c0-0.6,0.5-1,1-0.9c0,0,0.1,0,0.1,0
		c0.6,0,1,0.5,0.9,1.1V15.8z"/>
</g>
</svg>
