<svg xmlns="http://www.w3.org/2000/svg" xmlns:xlink="http://www.w3.org/1999/xlink" viewBox="0 0 62.61 62.61"><defs><style>.cls-1{opacity:0.1;fill:url(#Degradado_sin_nombre_232);}.cls-2{fill:none;stroke:#bae6fb;stroke-width:3px;}.cls-3{fill:url(#Degradado_sin_nombre_232-2);}.cls-4{fill:#b8e5fa;}.cls-5{fill:#4bbef9;}</style><linearGradient id="Degradado_sin_nombre_232" y1="31.31" x2="62.61" y2="31.31" gradientUnits="userSpaceOnUse"><stop offset="0" stop-color="#6bcbf6"/><stop offset="1" stop-color="#22aff8"/></linearGradient><linearGradient id="Degradado_sin_nombre_232-2" x1="20.25" y1="13608.6" x2="42.62" y2="13585.63" gradientTransform="matrix(1, 0, 0, -1, 0, 13626.45)" xlink:href="#Degradado_sin_nombre_232"/></defs><title>d.t</title><g id="Capa_2" data-name="Capa 2"><g id="Capa_1-2" data-name="Capa 1"><circle class="cls-1" cx="31.31" cy="31.31" r="31.31"/><g id="_16" data-name="16"><path id="Rectangle" class="cls-2" d="M30.25,41.84h2.11V36.92H30.25Z"/><path id="Rectangle-2" data-name="Rectangle" class="cls-3" d="M19,24.29v9.83a4.2,4.2,0,0,0,4.21,4.21H39.38a4.2,4.2,0,0,0,4.21-4.21V24.29a4.21,4.21,0,0,0-4.21-4.22H23.23A4.21,4.21,0,0,0,19,24.29Z"/><path id="Rectangle-3" data-name="Rectangle" class="cls-4" d="M19,33.41H43.59v-2.1H19Z"/><path id="Rectangle-4" data-name="Rectangle" class="cls-5" d="M26,41.49h0a1,1,0,0,0,1.05,1h8.43a1,1,0,0,0,1-1h0a1.05,1.05,0,0,0-1-1.06H27.09A1.05,1.05,0,0,0,26,41.49Z"/></g></g></g></svg>