<svg xmlns="http://www.w3.org/2000/svg" xmlns:xlink="http://www.w3.org/1999/xlink" viewBox="0 0 62.61 62.61"><defs><style>.cls-1{opacity:0.1;fill:url(#Degradado_sin_nombre_62);}.cls-2{fill:url(#Degradado_sin_nombre_62-2);}.cls-3,.cls-4{fill:#fff;isolation:isolate;}.cls-3{opacity:0.8;}.cls-4{opacity:0.6;}</style><linearGradient id="Degradado_sin_nombre_62" y1="31.31" x2="62.61" y2="31.31" gradientUnits="userSpaceOnUse"><stop offset="0" stop-color="#6ec028"/><stop offset="1" stop-color="#9cc82e"/></linearGradient><linearGradient id="Degradado_sin_nombre_62-2" x1="14.92" y1="13617.49" x2="47.69" y2="13584.72" gradientTransform="matrix(1, 0, 0, -1, 0, 13632.41)" xlink:href="#Degradado_sin_nombre_62"/></defs><title>mk</title><g id="Capa_2" data-name="Capa 2"><g id="Capa_1-2" data-name="Capa 1"><circle class="cls-1" cx="31.31" cy="31.31" r="31.31"/><g id="_8" data-name="8"><path id="Rectangle" class="cls-2" d="M19.72,23.93V38.68a4.2,4.2,0,0,0,4.21,4.21H38.68a4.2,4.2,0,0,0,4.21-4.21V23.93a4.2,4.2,0,0,0-4.21-4.21H23.93A4.2,4.2,0,0,0,19.72,23.93Z"/><path id="Rectangle-2" data-name="Rectangle" class="cls-3" d="M25.34,32.71v2.81a1,1,0,0,0,1.05,1h0a1.06,1.06,0,0,0,1.06-1V32.71a1.06,1.06,0,0,0-1.06-1.05h0A1,1,0,0,0,25.34,32.71Z"/><path id="Rectangle_Copy_14" data-name="Rectangle Copy 14" class="cls-3" d="M35.17,30.6v4.92a1,1,0,0,0,1,1h0a1,1,0,0,0,1.05-1V30.6a1,1,0,0,0-1.05-1.05h0A1,1,0,0,0,35.17,30.6Z"/><path id="Rectangle_Copy_13" data-name="Rectangle Copy 13" class="cls-4" d="M30.25,27.09v8.43a1.05,1.05,0,0,0,1.06,1h0a1,1,0,0,0,1.05-1V27.09A1,1,0,0,0,31.31,26h0A1.05,1.05,0,0,0,30.25,27.09Z"/></g></g></g></svg>