<svg xmlns="http://www.w3.org/2000/svg" xmlns:xlink="http://www.w3.org/1999/xlink" viewBox="0 0 62.81 62.81"><defs><style>.cls-1,.cls-7{fill:#cbcafb;}.cls-1{opacity:0.29;}.cls-2{fill:url(#Degradado_sin_nombre_2);}.cls-3{fill:url(#Degradado_sin_nombre_2-2);}.cls-4{fill:url(#Degradado_sin_nombre_2-3);}.cls-5{fill:url(#Degradado_sin_nombre_2-4);}.cls-6{fill:url(#Degradado_sin_nombre_2-5);}.cls-8{fill:url(#Degradado_sin_nombre_2-6);}</style><linearGradient id="Degradado_sin_nombre_2" x1="8653.01" y1="40.09" x2="8659.98" y2="40.09" gradientTransform="matrix(-1, 0, 0, 1, 8690.61, 0)" gradientUnits="userSpaceOnUse"><stop offset="0" stop-color="#8a6ef6"/><stop offset="1" stop-color="#502cf8"/></linearGradient><linearGradient id="Degradado_sin_nombre_2-2" x1="25.9" y1="40.09" x2="32.87" y2="40.09" gradientTransform="matrix(1, 0, 0, 1, 0, 0)" xlink:href="#Degradado_sin_nombre_2"/><linearGradient id="Degradado_sin_nombre_2-3" x1="36.67" y1="34.2" x2="46.68" y2="34.2" gradientTransform="matrix(1, 0, 0, 1, 0, 0)" xlink:href="#Degradado_sin_nombre_2"/><linearGradient id="Degradado_sin_nombre_2-4" x1="25.1" y1="13601.72" x2="38.55" y2="13587.91" gradientTransform="matrix(1, 0, 0, -1, 0, 13629.09)" xlink:href="#Degradado_sin_nombre_2"/><linearGradient id="Degradado_sin_nombre_2-5" x1="21.68" y1="21.39" x2="31.2" y2="31.16" gradientTransform="matrix(1, 0, 0, 1, 0, 0)" xlink:href="#Degradado_sin_nombre_2"/><linearGradient id="Degradado_sin_nombre_2-6" x1="32.4" y1="21.39" x2="41.92" y2="31.16" gradientTransform="matrix(1, 0, 0, 1, 0, 0)" xlink:href="#Degradado_sin_nombre_2"/></defs><title>p.a</title><g id="Capa_2" data-name="Capa 2"><g id="Capa_1-2" data-name="Capa 1"><circle class="cls-1" cx="31.4" cy="31.4" r="31.4"/><path class="cls-2" d="M36.47,43.57a1.11,1.11,0,0,1-.79-.32L31,38.52a1.12,1.12,0,1,1,1.59-1.59l4.72,4.73a1.12,1.12,0,0,1,0,1.59A1.08,1.08,0,0,1,36.47,43.57Z"/><path class="cls-3" d="M27,43.57a1.09,1.09,0,0,1-.79-.32,1.12,1.12,0,0,1,0-1.59L31,36.93a1.14,1.14,0,0,1,1.59,0,1.12,1.12,0,0,1,0,1.59l-4.73,4.73A1.09,1.09,0,0,1,27,43.57Z"/><path class="cls-4" d="M37.29,35l8.42,1.87a.8.8,0,0,0,1-.77V32.33a.8.8,0,0,0-1-.78l-8.42,1.87A.79.79,0,0,0,37.29,35Z"/><g id="_16" data-name="16"><path id="Rectangle" class="cls-5" d="M23.19,31.91v4.57c0,1.08,1.31,2,2.93,2H37.37c1.62,0,2.93-.88,2.93-2V31.91c0-1.08-1.31-2-2.93-2H26.12C24.5,30,23.19,30.83,23.19,31.91Z"/></g><circle class="cls-6" cx="26.39" cy="26.22" r="5.69"/><circle class="cls-7" cx="26.39" cy="26.22" r="3.6"/><circle class="cls-8" cx="37.11" cy="26.22" r="5.69"/><circle class="cls-7" cx="37.11" cy="26.22" r="3.6"/></g></g></svg>