<?xml version="1.0" encoding="utf-8"?>
<!-- Generator: Adobe Illustrator 22.0.1, SVG Export Plug-In . SVG Version: 6.00 Build 0)  -->
<svg version="1.1" id="Capa_1" xmlns="http://www.w3.org/2000/svg" xmlns:xlink="http://www.w3.org/1999/xlink" x="0px" y="0px"
	 viewBox="0 0 26 23" style="enable-background:new 0 0 26 23;" xml:space="preserve">
<style type="text/css">
	.st0{fill:none;}
	.st1{fill:#FFFFFF;}
</style>
<g>
	<path class="st0" d="M10,9.4h2.1c-0.5-0.5-0.8-1.1-1-1.8C10.8,8.3,10.5,8.9,10,9.4z"/>
	<path class="st1" d="M25.2,11c-0.1,0-0.2,0-0.2,0l-5.4,1.2v-0.8c0-0.3-0.1-0.6-0.3-0.8c1.7-1,2.8-2.8,2.8-4.9
		c0-3.1-2.5-5.7-5.7-5.7c-2.5,0-4.6,1.6-5.4,3.8C10.3,1.6,8.2,0,5.7,0C2.5,0,0,2.5,0,5.7c0,2.1,1.1,3.9,2.8,4.9
		c-0.2,0.3-0.3,0.5-0.3,0.8V16c0,1.1,1.3,2,2.9,2h3.2l-3.1,3.1c0,0,0,0,0,0c-0.4,0.4-0.4,1.1,0,1.6C5.7,22.9,6,23.1,6.3,23
		c0.3,0,0.6-0.1,0.8-0.3l3.9-3.9l3.9,3.9c0.2,0.2,0.5,0.3,0.8,0.3c0.3,0,0.6-0.1,0.8-0.3c0.4-0.4,0.4-1.1,0-1.6L13.4,18h3.2
		c1.6,0,2.9-0.9,2.9-2v-0.9l5.4,1.2c0.4,0.1,0.9-0.1,1-0.6c0-0.1,0-0.1,0-0.2v-3.7C26,11.4,25.7,11,25.2,11z M5.7,9.3
		c-2,0-3.6-1.6-3.6-3.6c0-2,1.6-3.6,3.6-3.6c2,0,3.6,1.6,3.6,3.6C9.3,7.7,7.7,9.3,5.7,9.3z M10,9.4c0.5-0.5,0.8-1.1,1-1.8
		c0.2,0.7,0.6,1.3,1,1.8H10z M16.4,9.3c-2,0-3.6-1.6-3.6-3.6c0-2,1.6-3.6,3.6-3.6S20,3.7,20,5.7C20,7.7,18.4,9.3,16.4,9.3z"/>
</g>
</svg>
