<svg xmlns="http://www.w3.org/2000/svg" xmlns:xlink="http://www.w3.org/1999/xlink" viewBox="0 0 62.61 62.61"><defs><style>.cls-1{opacity:0.1;fill:url(#Degradado_sin_nombre_231);}.cls-2{fill:url(#Degradado_sin_nombre_231-2);}.cls-3{fill:#ffe4e4;}</style><linearGradient id="Degradado_sin_nombre_231" y1="31.31" x2="62.61" y2="31.31" gradientUnits="userSpaceOnUse"><stop offset="0" stop-color="#ffa58d"/><stop offset="1" stop-color="#f6395e"/></linearGradient><linearGradient id="Degradado_sin_nombre_231-2" x1="17.78" y1="44.13" x2="45.76" y2="15.31" xlink:href="#Degradado_sin_nombre_231"/></defs><title>design</title><g id="Capa_2" data-name="Capa 2"><g id="Capa_1-2" data-name="Capa 1"><circle class="cls-1" cx="31.31" cy="31.31" r="31.31"/><path class="cls-2" d="M34.64,36.8a4.91,4.91,0,0,1,3.85-4,5.1,5.1,0,0,1,1.78,0,1.91,1.91,0,0,0,2.27-1.93c0-.36,0-.73-.1-1.1A11.24,11.24,0,1,0,30,42.46a11,11,0,0,0,3.78-.19A1.86,1.86,0,0,0,35,39.69,4.92,4.92,0,0,1,34.64,36.8Z"/><circle class="cls-3" cx="24.71" cy="32.11" r="2.18"/><circle class="cls-3" cx="26.2" cy="26.4" r="2.18"/><circle class="cls-3" cx="32.05" cy="25.1" r="2.18"/></g></g></svg>