<svg xmlns="http://www.w3.org/2000/svg" viewBox="0 0 37.02 37.02"><title>lyonn-positive</title><g id="Capa_2" data-name="Capa 2"><g id="Capa_1-2" data-name="Capa 1"><path d="M18.51,0A18.51,18.51,0,1,0,37,18.51,18.51,18.51,0,0,0,18.51,0ZM13.36,22.33c.15-.37.09-1.14-.55-1.14-1.54,0-2.93-1.75-2.93-3.5a1.51,1.51,0,0,1,.08-.48,1.15,1.15,0,0,1,1.83-.74,2.93,2.93,0,0,0,2.84.47c.69-.27.82,2.2.9,3.52.1,1.7,2.45,1.1,2.45,2.9a2.14,2.14,0,0,1-2.42,2.26A2.58,2.58,0,0,1,13.36,22.33Zm8.45,5.13a1.26,1.26,0,0,1-1.27,1.26H16.65a1.26,1.26,0,0,1-1.27-1.26h0a.81.81,0,0,1,.65-.79l2.56-.83,2.57.83a.81.81,0,0,1,.65.79Zm2.57-6.27c-.64,0-.7.77-.55,1.14a2.58,2.58,0,0,1-2.2,3.29,2.14,2.14,0,0,1-2.42-2.26c0-1.8,2.35-1.2,2.45-2.9.08-1.32.21-3.79.9-3.52a2.93,2.93,0,0,0,2.84-.47,1.15,1.15,0,0,1,1.83.74,1.51,1.51,0,0,1,.08.48C27.31,19.44,25.92,21.19,24.38,21.19Zm1.47-6.1c-4.47,0-5.11.48-5.15,5a.62.62,0,0,1-.62.61h-3a.62.62,0,0,1-.62-.61c0-4.5-.68-5-5.15-5-2.88,0-2.39-4.1,1.17-4.75a2.85,2.85,0,0,1,1.63.19l3.26,1.38a3,3,0,0,0,2.39,0l3.28-1.39a2.62,2.62,0,0,1,1.41-.21C28.22,10.84,28.78,15.09,25.85,15.09Z"/></g></g></svg>