<svg xmlns="http://www.w3.org/2000/svg" viewBox="0 0 43.36 43.36"><defs><style>.cls-1{fill:#fff;}</style></defs><title>lyonn-w</title><g id="Capa_2" data-name="Capa 2"><g id="Capa_1-2" data-name="Capa 1"><path class="cls-1" d="M21.68,43.36A21.68,21.68,0,1,1,43.36,21.68,21.7,21.7,0,0,1,21.68,43.36Zm0-41.52A19.85,19.85,0,1,0,41.53,21.68,19.86,19.86,0,0,0,21.68,1.84Z"/><path class="cls-1" d="M15.91,26c.16-.41.1-1.27-.62-1.27-1.73,0-3.28-2-3.28-3.93a1.89,1.89,0,0,1,.08-.53,1.29,1.29,0,0,1,2.06-.83,3.31,3.31,0,0,0,3.17.52c.78-.31.93,2.47,1,3.95.12,1.91,2.74,1.23,2.74,3.25a2.4,2.4,0,0,1-2.71,2.54A2.89,2.89,0,0,1,15.91,26Z"/><path class="cls-1" d="M25.38,31.72A1.43,1.43,0,0,1,24,33.14H19.59a1.42,1.42,0,0,1-1.41-1.42h0a.91.91,0,0,1,.72-.89l2.88-.92,2.88.92a.91.91,0,0,1,.72.89Z"/><path class="cls-1" d="M28.27,24.69c-.72,0-.79.86-.62,1.27a2.9,2.9,0,0,1-2.47,3.7,2.4,2.4,0,0,1-2.71-2.54c0-2,2.63-1.34,2.74-3.25.09-1.48.24-4.26,1-3.95a3.33,3.33,0,0,0,3.18-.52,1.28,1.28,0,0,1,2.05.83,1.6,1.6,0,0,1,.09.53C31.55,22.72,30,24.69,28.27,24.69Z"/><path class="cls-1" d="M29.92,17.85c-5,0-5.73.54-5.78,5.59a.7.7,0,0,1-.69.68H20.11a.69.69,0,0,1-.69-.68c-.05-5.05-.77-5.59-5.78-5.59-3.23,0-2.68-4.6,1.31-5.33a3.19,3.19,0,0,1,1.83.21l3.66,1.55a3.37,3.37,0,0,0,2.68,0l3.67-1.56a3.1,3.1,0,0,1,1.59-.24C32.57,13.08,33.21,17.85,29.92,17.85Z"/></g></g></svg>