<svg xmlns="http://www.w3.org/2000/svg" viewBox="0 0 19.9 19.91"><title>arnter-social-dribbble</title><g id="Capa_2" data-name="Capa 2"><g id="Capa_1-2" data-name="Capa 1"><path d="M19.71,8a10,10,0,0,0-.59-1.88,9.57,9.57,0,0,0-.92-1.69,9.86,9.86,0,0,0-2.68-2.68A9.57,9.57,0,0,0,13.83.79,9.31,9.31,0,0,0,12,.21a9.63,9.63,0,0,0-4,0A9.22,9.22,0,0,0,6.08.79a9.31,9.31,0,0,0-1.7.92A9.86,9.86,0,0,0,1.7,4.39,10.26,10.26,0,0,0,.78,6.08,10,10,0,0,0,.2,8,9.46,9.46,0,0,0,0,10a9.59,9.59,0,0,0,.2,2,9.92,9.92,0,0,0,4.18,6.25,9.31,9.31,0,0,0,1.7.92A9.9,9.9,0,0,0,8,19.71a9.56,9.56,0,0,0,2,.2,9.49,9.49,0,0,0,2-.2,10,10,0,0,0,1.88-.58,9.57,9.57,0,0,0,1.69-.92,9.86,9.86,0,0,0,2.68-2.68,9.31,9.31,0,0,0,.92-1.7A9.22,9.22,0,0,0,19.7,12a9.59,9.59,0,0,0,.2-2A10.17,10.17,0,0,0,19.71,8ZM10,1.45a8.54,8.54,0,0,1,5.62,2.12,9.16,9.16,0,0,1-4.44,3.08A44.37,44.37,0,0,0,8,1.7,8.24,8.24,0,0,1,10,1.45Zm-3.63.82a50.36,50.36,0,0,1,3.16,4.9,31.93,31.93,0,0,1-7.84,1A8.49,8.49,0,0,1,6.32,2.27ZM3.62,15.63A8.46,8.46,0,0,1,1.45,10V9.69a31.75,31.75,0,0,0,8.74-1.21c.24.48.47,1,.68,1.44l-.33.11A13.56,13.56,0,0,0,3.62,15.63ZM10,18.46a8.48,8.48,0,0,1-5.22-1.8,11.51,11.51,0,0,1,6.67-5.31l0,0a34.58,34.58,0,0,1,1.82,6.46A8.52,8.52,0,0,1,10,18.46ZM14.7,17A36,36,0,0,0,13,10.93a12.35,12.35,0,0,1,5.3.38A8.5,8.5,0,0,1,14.7,17ZM12.53,9.59l-.18-.43c-.18-.42-.38-.83-.57-1.23a11.16,11.16,0,0,0,4.74-3.37,8.46,8.46,0,0,1,1.93,5.31A19.83,19.83,0,0,0,12.53,9.59Z"/></g></g></svg>