<svg xmlns="http://www.w3.org/2000/svg" viewBox="0 0 18.81 11.92"><title>arnter-social-behance</title><g id="Capa_2" data-name="Capa 2"><g id="Capa_1-2" data-name="Capa 1"><path d="M7.58,5.33A2,2,0,0,0,9.37,3.11,3,3,0,0,0,6.07,0H0V11.67H6.07s3.7.11,3.7-3.45C9.77,8.22,9.93,5.33,7.58,5.33ZM2.67,2.07h3.4s.83,0,.83,1.22-.5,1.38-1,1.38H2.67ZM5.9,9.59H2.68V6.47H6.07a1,1,0,0,1,.24,0l.16,0,.11.05a.7.7,0,0,1,.16.1A1.57,1.57,0,0,1,7.3,8.08C7.3,9.44,6.38,9.58,5.9,9.59Z"/><path d="M14.72,3c-4.47,0-4.48,4.44-4.48,4.48a4.13,4.13,0,0,0,4.48,4.46s4,.23,4-3.11H16.65s.07,1.27-1.87,1.27a1.9,1.9,0,0,1-2-2h6.05S19.44,3,14.72,3Zm-2,3.5a2.09,2.09,0,0,1,2-1.8,1.64,1.64,0,0,1,.71.13,1.48,1.48,0,0,1,.31.15A1.25,1.25,0,0,1,16,5.1a.47.47,0,0,1,.1.1,1.35,1.35,0,0,1,.26.38,1.09,1.09,0,0,1,.09.23,2.56,2.56,0,0,1,.09.35,1.83,1.83,0,0,1,0,.21.51.51,0,0,1,0,.1Z"/><rect x="12.21" y="0.69" width="4.81" height="1.44"/></g></g></svg>