<svg xmlns="http://www.w3.org/2000/svg" viewBox="0 0 20.18 16.4"><title>arnter-social-twitter</title><g id="Capa_2" data-name="Capa 2"><g id="Capa_1-2" data-name="Capa 1"><path d="M19.63.3A8.11,8.11,0,0,1,17,1.3,4.16,4.16,0,0,0,9.93,5.08,11.76,11.76,0,0,1,1.4.76,4.16,4.16,0,0,0,2.69,6.28,4,4,0,0,1,.81,5.76v.06a4.13,4.13,0,0,0,3.32,4A3.55,3.55,0,0,1,3,10a3.39,3.39,0,0,1-.78-.09,4.15,4.15,0,0,0,3.87,2.88A8.3,8.3,0,0,1,1,14.6a8.1,8.1,0,0,1-1-.06A11.76,11.76,0,0,0,6.35,16.4,11.7,11.7,0,0,0,18.12,4.61c0-.17,0-.35,0-.53a8.26,8.26,0,0,0,2.07-2.14,8.22,8.22,0,0,1-2.38.65A4.17,4.17,0,0,0,19.63.3Z"/></g></g></svg>