<svg xmlns="http://www.w3.org/2000/svg" viewBox="0 0 18.19 18.2"><title>arnter-social-instagram</title><g id="Capa_2" data-name="Capa 2"><g id="Capa_1-2" data-name="Capa 1"><path d="M9.1,4.43A4.67,4.67,0,1,0,13.77,9.1,4.67,4.67,0,0,0,9.1,4.43Zm0,7.71a3,3,0,1,1,3-3A3,3,0,0,1,9.1,12.14Z"/><path d="M18.14,5.35a7,7,0,0,0-.42-2.21,4.58,4.58,0,0,0-1-1.62,4.72,4.72,0,0,0-1.62-1A6.69,6.69,0,0,0,12.84.06C11.87,0,11.57,0,9.1,0S6.31,0,5.34.05a6.91,6.91,0,0,0-2.2.42A4.62,4.62,0,0,0,1.52,1.52a4.72,4.72,0,0,0-1,1.62A6.71,6.71,0,0,0,.05,5.35c0,1,0,1.28,0,3.75s0,2.78.05,3.75a6.71,6.71,0,0,0,.42,2.21,4.68,4.68,0,0,0,1.05,1.61,4.36,4.36,0,0,0,1.62,1,6.4,6.4,0,0,0,2.2.42c1,.05,1.28.06,3.76.06s2.77,0,3.74-.06a6.41,6.41,0,0,0,2.21-.42,4.66,4.66,0,0,0,2.67-2.66,7,7,0,0,0,.42-2.21c0-1,.05-1.28.05-3.75S18.18,6.32,18.14,5.35Zm-1.63,7.43a4.88,4.88,0,0,1-.33,1.69,3,3,0,0,1-1.72,1.72,4.83,4.83,0,0,1-1.69.32c-1,0-1.24,0-3.67,0s-2.72,0-3.68,0a4.83,4.83,0,0,1-1.69-.32,2.91,2.91,0,0,1-1-.67,3,3,0,0,1-.69-1,5.28,5.28,0,0,1-.31-1.69c0-1-.05-1.25-.05-3.68s0-2.72.05-3.68A5.07,5.07,0,0,1,2,3.74a2.75,2.75,0,0,1,.69-1.05,2.58,2.58,0,0,1,1-.68A4.89,4.89,0,0,1,5.42,1.7c1-.05,1.24-.06,3.68-.06s2.71,0,3.67.06A4.89,4.89,0,0,1,14.46,2a2.61,2.61,0,0,1,1,.68,2.7,2.7,0,0,1,.67,1.05,4.48,4.48,0,0,1,.33,1.68c0,1,0,1.25,0,3.68S16.55,11.81,16.51,12.78Z"/><circle cx="13.95" cy="4.24" r="1.09"/></g></g></svg>