<svg xmlns="http://www.w3.org/2000/svg" viewBox="0 0 69.39 34.7"><g id="Capa_2" data-name="Capa 2"><g id="Capa_1-2" data-name="Capa 1"><path d="M64.59,4.8A17.27,17.27,0,0,0,52,0C41.69,0,36.67,8.52,32.25,16c-4.19,7.1-7.8,13.23-14.9,13.23C10,29.27,5.42,24.7,5.42,17.35S10,5.42,17.35,5.42A12.25,12.25,0,0,1,26,9.28a2.71,2.71,0,1,0,3.75-3.92A17.64,17.64,0,0,0,17.35,0,17.27,17.27,0,0,0,4.8,4.8,17.27,17.27,0,0,0,0,17.35,17.25,17.25,0,0,0,4.8,29.89,17.24,17.24,0,0,0,17.35,34.7c8.33,0,13.18-5.65,17.07-11.79a31.23,31.23,0,0,0,2.31,3.42C41,31.8,46.27,34.7,52,34.7a20.32,20.32,0,0,0,5.66-.78,2.71,2.71,0,0,0-1.52-5.21,14.44,14.44,0,0,1-4.14.56c-8.21,0-12.94-8.72-14.35-11.8,3.92-6.59,7.55-12,14.35-12C59.4,5.42,64,10,64,17.35a14.46,14.46,0,0,1-.69,4.57,2.71,2.71,0,0,0,5.15,1.7,19.9,19.9,0,0,0,1-6.27A17.27,17.27,0,0,0,64.59,4.8Z"/></g></g></svg>