<svg xmlns="http://www.w3.org/2000/svg" viewBox="0 0 21.16 21.16"><defs><style>.cls-1{fill:#262626;}</style></defs><title>wp-positive</title><g id="Capa_2" data-name="Capa 2"><g id="Capa_1-2" data-name="Capa 1"><path class="cls-1" d="M15.87,12.84a.37.37,0,0,1,.18.4l-.11.51A2.16,2.16,0,0,1,15,15.14a3,3,0,0,1-2.48.29,11.06,11.06,0,0,1-6-4.34,4.77,4.77,0,0,1-1.1-3.72,3,3,0,0,1,1-1.57A.83.83,0,0,1,7,5.58l.69,0A.3.3,0,0,1,8,5.84L9.08,8.21A.43.43,0,0,1,9,8.57l-.88,1a.27.27,0,0,0,0,.29,7.08,7.08,0,0,0,3.83,3.28.28.28,0,0,0,.29-.07l.91-1.17a.36.36,0,0,1,.44-.11Z"/><path class="cls-1" d="M10.54,0A10.52,10.52,0,0,0,1.46,15.87L0,21.16,5.4,19.7a10.68,10.68,0,0,0,5.14,1.46A10.76,10.76,0,0,0,21.16,10.51,10.63,10.63,0,0,0,10.54,0Zm0,19.33A8.66,8.66,0,0,1,6,18l-.33-.18-3.14.8.84-3.06-.22-.33a8.87,8.87,0,0,1-1.35-4.7,8.76,8.76,0,0,1,17.51,0A8.83,8.83,0,0,1,10.58,19.33Z"/><path class="cls-1" d="M16.05,13.24l-.11.51A2.16,2.16,0,0,1,15,15.14a3,3,0,0,1-2.48.29,11.06,11.06,0,0,1-6-4.34,4.77,4.77,0,0,1-1.1-3.72,3,3,0,0,1,1-1.57A.83.83,0,0,1,7,5.58l.69,0A.3.3,0,0,1,8,5.84L9.08,8.21A.43.43,0,0,1,9,8.57l-.88,1a.27.27,0,0,0,0,.29,7.08,7.08,0,0,0,3.83,3.28.28.28,0,0,0,.29-.07l.91-1.17a.36.36,0,0,1,.44-.11l2.3,1.06A.37.37,0,0,1,16.05,13.24Z"/><path class="cls-1" d="M16.05,13.24l-.11.51A2.16,2.16,0,0,1,15,15.14a3,3,0,0,1-2.48.29,11.06,11.06,0,0,1-6-4.34,4.77,4.77,0,0,1-1.1-3.72,3,3,0,0,1,1-1.57A.83.83,0,0,1,7,5.58l.69,0A.3.3,0,0,1,8,5.84L9.08,8.21A.43.43,0,0,1,9,8.57l-.88,1a.27.27,0,0,0,0,.29,7.08,7.08,0,0,0,3.83,3.28.28.28,0,0,0,.29-.07l.91-1.17a.36.36,0,0,1,.44-.11l2.3,1.06A.37.37,0,0,1,16.05,13.24Z"/></g></g></svg>